<svg width="1441" height="624" viewBox="0 0 1441 624" fill="none" xmlns="http://www.w3.org/2000/svg">
<rect width="1441" height="624" fill="#EDD7BF"/>
<g clip-path="url(#clip0_230_327)">
<rect width="480" height="369" transform="translate(961 255)" fill="#EDD7BF"/>
<path d="M1065.22 610.788C1064.84 610.806 1064.46 610.706 1064.14 610.502C1063.82 610.298 1063.57 610 1063.42 609.648C1063.28 609.296 1063.24 608.907 1063.32 608.534C1063.4 608.161 1063.6 607.822 1063.87 607.563L1064 607.057C1063.99 607.016 1063.97 606.975 1063.95 606.935C1062.24 602.85 1051.33 614.237 1050.86 618.076C1050.65 619.773 1050.74 621.493 1051.12 623.16C1047.59 615.436 1045.75 607.041 1045.74 598.545C1045.74 596.413 1045.86 594.282 1046.09 592.163C1046.29 590.426 1046.56 588.701 1046.91 586.989C1048.8 577.698 1052.87 568.99 1058.77 561.579C1062.15 561.768 1065.11 561.253 1065.4 554.695C1065.45 553.528 1066.31 552.518 1066.5 551.369C1066.18 551.411 1065.85 551.438 1065.53 551.459C1065.43 551.464 1065.32 551.469 1065.22 551.475L1065.18 551.476C1064.83 551.492 1064.48 551.405 1064.17 551.226C1063.87 551.046 1063.62 550.782 1063.46 550.464C1063.3 550.147 1063.23 549.79 1063.27 549.437C1063.31 549.084 1063.45 548.749 1063.67 548.473C1063.81 548.301 1063.95 548.13 1064.09 547.958C1064.3 547.693 1064.52 547.434 1064.73 547.169C1064.75 547.144 1064.78 547.117 1064.8 547.09C1065.04 546.788 1065.28 546.491 1065.53 546.189C1065.08 545.499 1064.49 544.921 1063.78 544.5C1061.35 543.07 1057.99 544.06 1056.22 546.269C1054.46 548.477 1054.13 551.575 1054.74 554.334C1055.34 556.682 1056.34 558.91 1057.69 560.922C1057.56 561.092 1057.42 561.256 1057.29 561.426C1054.87 564.538 1052.77 567.88 1051 571.403C1051.5 567.495 1045.39 553.382 1043.03 550.392C1040.2 546.802 1034.38 548.369 1033.88 552.921C1033.88 552.965 1033.87 553.009 1033.87 553.053C1034.22 553.251 1034.56 553.461 1034.9 553.684C1035.32 553.967 1035.65 554.37 1035.83 554.842C1036.02 555.314 1036.07 555.832 1035.96 556.329C1035.85 556.825 1035.59 557.277 1035.22 557.624C1034.85 557.972 1034.38 558.2 1033.88 558.277L1033.83 558.285C1029.13 565.002 1044.19 582.483 1047.95 578.558C1046.18 583.593 1045.07 588.837 1044.64 594.16C1044.4 597.3 1044.42 600.454 1044.69 603.592L1044.67 603.48C1043.83 596.646 1029.47 586.486 1025.28 587.332C1022.86 587.82 1020.48 587.709 1020.85 590.15C1020.86 590.189 1020.86 590.228 1020.87 590.267C1021.52 590.533 1022.15 590.839 1022.77 591.183C1023.12 591.382 1023.46 591.592 1023.8 591.815C1024.22 592.097 1024.55 592.501 1024.74 592.973C1024.92 593.445 1024.97 593.963 1024.86 594.459C1024.75 594.956 1024.49 595.407 1024.12 595.755C1023.75 596.103 1023.28 596.33 1022.78 596.408L1022.73 596.416C1022.69 596.421 1022.66 596.426 1022.62 596.432C1020.49 603.799 1036.34 615.69 1045.97 611.906H1045.98C1046.93 616.063 1048.31 620.11 1050.1 623.981H1064.85C1064.9 623.817 1064.95 623.647 1065 623.483C1063.63 623.569 1062.26 623.487 1060.92 623.239C1062.01 621.894 1063.11 620.538 1064.2 619.193C1064.23 619.168 1064.25 619.142 1064.27 619.114C1064.82 618.425 1065.38 617.742 1065.94 617.054C1065.97 614.943 1065.73 612.837 1065.22 610.788ZM1048.33 577.504L1048.34 577.494L1048.33 577.515V577.504ZM1045.07 607.007L1044.94 606.722C1044.95 606.515 1044.95 606.308 1044.94 606.097C1044.94 606.038 1044.93 605.98 1044.93 605.922C1044.98 606.287 1045.02 606.653 1045.07 607.018L1045.07 607.007Z" fill="#D78B1A"/>
<path d="M1294.62 282.654C1294.63 289.62 1292.01 296.332 1287.28 301.436C1286.92 301.828 1286.54 302.207 1286.15 302.573C1271.89 291.576 1256.94 281.515 1241.38 272.453C1241.57 271.965 1241.78 271.483 1242 271.008C1244.65 265.297 1249.16 260.663 1254.79 257.872C1260.43 255.081 1266.84 254.299 1272.98 255.657C1279.12 257.015 1284.61 260.431 1288.54 265.34C1292.48 270.249 1294.62 276.357 1294.62 282.654Z" fill="#D78B1A"/>
<path d="M1317 338.924L1316.98 339.213C1298.83 337.961 1280.68 336.706 1262.53 335.449C1249.42 334.543 1235.86 333.515 1224.27 327.297C1219.88 324.94 1215.59 321.792 1210.61 321.574C1204.42 321.298 1199.02 325.634 1194.78 330.156C1169.69 356.929 1162.43 397.867 1134.28 421.384C1152.03 377.524 1173.22 335.143 1197.66 294.64C1202.17 287.157 1207.53 279.166 1215.91 276.725C1223.9 274.393 1232.08 277.797 1239.44 282.165C1241.02 283.103 1242.56 284.086 1244.05 285.062C1255.39 292.501 1266.54 300.224 1277.51 308.232C1290.98 318.054 1304.15 328.285 1317 338.924Z" fill="#F2F2F2"/>
<path d="M1375.7 395.709C1356.3 368.272 1333.77 343.206 1308.55 321.022C1301.3 314.637 1293.83 308.487 1286.15 302.573C1271.89 291.576 1256.94 281.515 1241.38 272.453C1236.28 269.485 1231.11 266.635 1225.89 263.903C1221.83 261.79 1217.51 259.856 1212.83 260.158C1209.56 260.439 1206.43 261.644 1203.81 263.634C1198.06 267.841 1194.25 274.412 1191.12 280.675C1188.37 286.167 1185.81 291.769 1183.2 297.338C1182.1 299.708 1180.99 302.072 1179.84 304.423C1175.84 312.658 1171.74 320.848 1167.55 328.993C1162.16 339.49 1156.6 349.906 1150.89 360.244C1138.9 381.975 1126.24 403.314 1112.92 424.261C1093.34 455.05 1072.39 484.904 1050.08 513.825C1047.34 517.365 1046.21 518.187 1043.44 521.701C1042.79 522.523 1041.65 521.367 1042.29 520.551C1065.44 491.234 1085.6 463.535 1105.92 432.175C1121.24 408.53 1135.72 384.36 1149.36 359.666C1153.74 351.746 1158.03 343.776 1162.22 335.757C1169.01 322.775 1175.56 309.671 1181.88 296.445C1183.55 292.964 1185.2 289.469 1186.83 285.962C1192.02 274.83 1199.57 258.276 1214.16 258.501C1218.45 258.565 1222.43 260.306 1226.18 262.233C1230.01 264.205 1233.77 266.299 1237.52 268.425C1239.02 269.273 1240.51 270.134 1242 271.008C1247.89 274.438 1253.7 278.012 1259.41 281.729C1268.95 287.927 1278.24 294.497 1287.28 301.436C1291.56 304.732 1295.79 308.102 1299.95 311.547C1326.06 333.189 1349.53 357.834 1369.89 384.975C1372.34 388.244 1374.75 391.55 1377.1 394.893C1377.7 395.747 1376.3 396.556 1375.7 395.709Z" fill="#E4E4E4"/>
<path d="M1309.99 312.846C1310.84 311.899 1311.68 310.953 1312.53 310.006C1319.26 302.553 1326.48 295.186 1335.71 290.913C1340.12 288.811 1344.93 287.694 1349.8 287.64C1354.84 287.779 1359.8 288.863 1364.43 290.837C1366.64 291.719 1368.79 292.719 1370.91 293.785C1373.34 295.007 1375.72 296.311 1378.09 297.625C1382.54 300.092 1386.93 302.666 1391.26 305.349C1399.88 310.688 1408.23 316.434 1416.31 322.587C1420.5 325.779 1424.61 329.075 1428.62 332.475C1432.36 335.634 1436.02 338.877 1439.6 342.206C1440.37 342.914 1441.51 341.767 1440.75 341.059C1439.8 340.177 1438.85 339.301 1437.89 338.436C1435.19 335.991 1432.45 333.593 1429.66 331.242C1424.58 326.947 1419.37 322.818 1414.03 318.855C1405.72 312.689 1397.13 306.941 1388.25 301.612C1383.81 298.951 1379.31 296.401 1374.75 293.963C1373.37 293.228 1371.98 292.508 1370.57 291.827C1367.38 290.211 1364.05 288.856 1360.64 287.776C1355.8 286.208 1350.69 285.704 1345.64 286.299C1340.76 287.009 1336.07 288.637 1331.8 291.097C1322.73 296.176 1315.69 304.029 1308.85 311.694C1308.16 312.473 1309.3 313.625 1309.99 312.846Z" fill="#E4E4E4"/>
<path d="M1124.17 390.084L1102.43 382.12L1091.64 378.165C1088.16 376.759 1084.6 375.532 1080.99 374.489C1077.83 373.586 1074.48 373.629 1071.35 374.612C1068.55 375.649 1066 377.237 1063.83 379.283C1061.61 381.328 1059.55 383.534 1057.66 385.884C1055.31 388.712 1053 391.571 1050.67 394.419C1041.08 406.177 1031.54 417.986 1022.07 429.845C1012.6 441.705 1003.2 453.614 993.854 465.574C984.488 477.564 975.187 489.603 965.95 501.693C964.819 503.174 963.688 504.656 962.558 506.138C961.934 506.957 960.527 506.15 961.16 505.319C970.465 493.108 979.835 480.947 989.27 468.836C998.728 456.695 1008.25 444.607 1017.84 432.569C1027.43 420.532 1037.08 408.548 1046.8 396.615C1049.22 393.642 1051.65 390.673 1054.08 387.707C1056.12 385.204 1058.15 382.675 1060.4 380.347C1064.52 376.072 1069.68 372.294 1075.85 372.191C1079.47 372.131 1082.98 373.284 1086.35 374.506C1089.99 375.823 1093.61 377.165 1097.24 378.494L1119.12 386.514L1124.6 388.519C1125.57 388.875 1125.15 390.444 1124.17 390.084H1124.17Z" fill="#E4E4E4"/>
<path d="M1338.57 300.292C1349.62 294.605 1363.76 295.718 1373.91 302.823C1354.55 306.17 1335.41 310.647 1316.57 316.232C1324.39 311.639 1330.51 304.444 1338.57 300.292Z" fill="#F2F2F2"/>
<path d="M1374.02 302.804L1376.14 304.535C1375.43 303.929 1374.68 303.361 1373.91 302.823C1373.95 302.817 1373.98 302.81 1374.02 302.804Z" fill="#F2F2F2"/>
<path d="M1064.65 390.163C1066.79 387.554 1069.1 384.822 1072.3 383.763L1075.29 383.881C1052.54 424.143 1021.83 459.324 985.03 487.265C1011.57 454.898 1038.11 422.53 1064.65 390.163Z" fill="#F2F2F2"/>
<path d="M1358.05 577.052L1354.18 560.387C1360.44 554.12 1368.08 549.525 1376.45 547C1367.62 560.149 1374.28 578.486 1370.1 593.891C1368.76 598.686 1366.39 603.107 1363.17 606.829C1359.95 610.55 1355.96 613.476 1351.49 615.389L1343.54 624.347C1340.09 617.118 1338.21 609.205 1338.02 601.152C1337.82 593.099 1339.32 585.098 1342.41 577.701C1344.18 573.569 1346.45 569.684 1349.17 566.137C1353.23 571.744 1358.05 577.052 1358.05 577.052Z" fill="#F5E2C6"/>
<path d="M1335.77 573.371L1325.11 560.234C1328 551.745 1332.86 544.112 1339.26 538C1337.04 553.834 1350.92 567.181 1353.83 582.895C1354.7 587.803 1354.49 592.85 1353.22 597.664C1351.94 602.477 1349.64 606.933 1346.47 610.701L1343.22 622.382C1337.01 617.496 1331.91 611.28 1328.25 604.162C1324.6 597.044 1322.48 589.193 1322.05 581.15C1321.86 576.635 1322.21 572.113 1323.1 567.689C1329.16 570.839 1335.77 573.371 1335.77 573.371Z" fill="#D78B1A"/>
</g>
<defs>
<clipPath id="clip0_230_327">
<rect width="480" height="369" fill="white" transform="translate(961 255)"/>
</clipPath>
</defs>
</svg>
