<svg width="556" height="150" viewBox="0 0 556 150" fill="none" xmlns="http://www.w3.org/2000/svg">
<path d="M106.4 144.12C105.013 144.12 103.753 143.813 102.62 143.2C101.5 142.573 100.62 141.72 99.98 140.64C99.3533 139.56 99.04 138.347 99.04 137C99.04 135.653 99.3533 134.44 99.98 133.36C100.62 132.28 101.5 131.433 102.62 130.82C103.753 130.193 105.013 129.88 106.4 129.88C107.787 129.88 109.033 130.187 110.14 130.8C111.26 131.413 112.14 132.267 112.78 133.36C113.42 134.44 113.74 135.653 113.74 137C113.74 138.347 113.42 139.567 112.78 140.66C112.14 141.74 111.26 142.587 110.14 143.2C109.033 143.813 107.787 144.12 106.4 144.12ZM106.4 142.8C107.507 142.8 108.507 142.553 109.4 142.06C110.293 141.553 110.993 140.86 111.5 139.98C112.007 139.087 112.26 138.093 112.26 137C112.26 135.907 112.007 134.92 111.5 134.04C110.993 133.147 110.293 132.453 109.4 131.96C108.507 131.453 107.507 131.2 106.4 131.2C105.293 131.2 104.287 131.453 103.38 131.96C102.487 132.453 101.78 133.147 101.26 134.04C100.753 134.92 100.5 135.907 100.5 137C100.5 138.093 100.753 139.087 101.26 139.98C101.78 140.86 102.487 141.553 103.38 142.06C104.287 142.553 105.293 142.8 106.4 142.8ZM118.117 135.54C118.451 134.833 118.944 134.3 119.597 133.94C120.264 133.58 121.084 133.4 122.057 133.4V134.78L121.717 134.76C120.611 134.76 119.744 135.1 119.117 135.78C118.491 136.46 118.177 137.413 118.177 138.64V144H116.757V133.48H118.117V135.54ZM134.271 133.48V142.72C134.271 144.507 133.831 145.827 132.951 146.68C132.084 147.547 130.771 147.98 129.011 147.98C128.037 147.98 127.111 147.833 126.231 147.54C125.364 147.26 124.657 146.867 124.111 146.36L124.831 145.28C125.337 145.733 125.951 146.087 126.671 146.34C127.404 146.593 128.171 146.72 128.971 146.72C130.304 146.72 131.284 146.407 131.911 145.78C132.537 145.167 132.851 144.207 132.851 142.9V141.56C132.411 142.227 131.831 142.733 131.111 143.08C130.404 143.427 129.617 143.6 128.751 143.6C127.764 143.6 126.864 143.387 126.051 142.96C125.251 142.52 124.617 141.913 124.151 141.14C123.697 140.353 123.471 139.467 123.471 138.48C123.471 137.493 123.697 136.613 124.151 135.84C124.617 135.067 125.251 134.467 126.051 134.04C126.851 133.613 127.751 133.4 128.751 133.4C129.644 133.4 130.451 133.58 131.171 133.94C131.891 134.3 132.471 134.82 132.911 135.5V133.48H134.271ZM128.891 142.34C129.651 142.34 130.337 142.18 130.951 141.86C131.564 141.527 132.037 141.067 132.371 140.48C132.717 139.893 132.891 139.227 132.891 138.48C132.891 137.733 132.717 137.073 132.371 136.5C132.037 135.913 131.564 135.46 130.951 135.14C130.351 134.807 129.664 134.64 128.891 134.64C128.131 134.64 127.444 134.8 126.831 135.12C126.231 135.44 125.757 135.893 125.411 136.48C125.077 137.067 124.911 137.733 124.911 138.48C124.911 139.227 125.077 139.893 125.411 140.48C125.757 141.067 126.231 141.527 126.831 141.86C127.444 142.18 128.131 142.34 128.891 142.34ZM141.922 133.4C143.295 133.4 144.348 133.747 145.082 134.44C145.815 135.12 146.182 136.133 146.182 137.48V144H144.822V142.36C144.502 142.907 144.028 143.333 143.402 143.64C142.788 143.947 142.055 144.1 141.202 144.1C140.028 144.1 139.095 143.82 138.402 143.26C137.708 142.7 137.362 141.96 137.362 141.04C137.362 140.147 137.682 139.427 138.322 138.88C138.975 138.333 140.008 138.06 141.422 138.06H144.762V137.42C144.762 136.513 144.508 135.827 144.002 135.36C143.495 134.88 142.755 134.64 141.782 134.64C141.115 134.64 140.475 134.753 139.862 134.98C139.248 135.193 138.722 135.493 138.282 135.88L137.642 134.82C138.175 134.367 138.815 134.02 139.562 133.78C140.308 133.527 141.095 133.4 141.922 133.4ZM141.422 142.98C142.222 142.98 142.908 142.8 143.482 142.44C144.055 142.067 144.482 141.533 144.762 140.84V139.12H141.462C139.662 139.12 138.762 139.747 138.762 141C138.762 141.613 138.995 142.1 139.462 142.46C139.928 142.807 140.582 142.98 141.422 142.98ZM155.399 133.4C156.719 133.4 157.765 133.787 158.539 134.56C159.325 135.32 159.719 136.433 159.719 137.9V144H158.299V138.04C158.299 136.947 158.025 136.113 157.479 135.54C156.932 134.967 156.152 134.68 155.139 134.68C154.005 134.68 153.105 135.02 152.439 135.7C151.785 136.367 151.459 137.293 151.459 138.48V144H150.039V133.48H151.399V135.42C151.785 134.78 152.319 134.287 152.999 133.94C153.692 133.58 154.492 133.4 155.399 133.4ZM163.574 133.48H164.994V144H163.574V133.48ZM164.294 131.18C164 131.18 163.754 131.08 163.554 130.88C163.354 130.68 163.254 130.44 163.254 130.16C163.254 129.893 163.354 129.66 163.554 129.46C163.754 129.26 164 129.16 164.294 129.16C164.587 129.16 164.834 129.26 165.034 129.46C165.234 129.647 165.334 129.873 165.334 130.14C165.334 130.433 165.234 130.68 165.034 130.88C164.834 131.08 164.587 131.18 164.294 131.18ZM173.305 144.1C172.265 144.1 171.332 143.873 170.505 143.42C169.692 142.967 169.052 142.333 168.585 141.52C168.118 140.693 167.885 139.767 167.885 138.74C167.885 137.713 168.118 136.793 168.585 135.98C169.052 135.167 169.692 134.533 170.505 134.08C171.332 133.627 172.265 133.4 173.305 133.4C174.212 133.4 175.018 133.58 175.725 133.94C176.445 134.287 177.012 134.8 177.425 135.48L176.365 136.2C176.018 135.68 175.578 135.293 175.045 135.04C174.512 134.773 173.932 134.64 173.305 134.64C172.545 134.64 171.858 134.813 171.245 135.16C170.645 135.493 170.172 135.973 169.825 136.6C169.492 137.227 169.325 137.94 169.325 138.74C169.325 139.553 169.492 140.273 169.825 140.9C170.172 141.513 170.645 141.993 171.245 142.34C171.858 142.673 172.545 142.84 173.305 142.84C173.932 142.84 174.512 142.713 175.045 142.46C175.578 142.207 176.018 141.82 176.365 141.3L177.425 142.02C177.012 142.7 176.445 143.22 175.725 143.58C175.005 143.927 174.198 144.1 173.305 144.1ZM189.129 133.4C190.502 133.4 191.555 133.747 192.289 134.44C193.022 135.12 193.389 136.133 193.389 137.48V144H192.029V142.36C191.709 142.907 191.235 143.333 190.609 143.64C189.995 143.947 189.262 144.1 188.409 144.1C187.235 144.1 186.302 143.82 185.609 143.26C184.915 142.7 184.569 141.96 184.569 141.04C184.569 140.147 184.889 139.427 185.529 138.88C186.182 138.333 187.215 138.06 188.629 138.06H191.969V137.42C191.969 136.513 191.715 135.827 191.209 135.36C190.702 134.88 189.962 134.64 188.989 134.64C188.322 134.64 187.682 134.753 187.069 134.98C186.455 135.193 185.929 135.493 185.489 135.88L184.849 134.82C185.382 134.367 186.022 134.02 186.769 133.78C187.515 133.527 188.302 133.4 189.129 133.4ZM188.629 142.98C189.429 142.98 190.115 142.8 190.689 142.44C191.262 142.067 191.689 141.533 191.969 140.84V139.12H188.669C186.869 139.12 185.969 139.747 185.969 141C185.969 141.613 186.202 142.1 186.669 142.46C187.135 142.807 187.789 142.98 188.629 142.98ZM202.606 133.4C203.926 133.4 204.972 133.787 205.746 134.56C206.532 135.32 206.926 136.433 206.926 137.9V144H205.506V138.04C205.506 136.947 205.232 136.113 204.686 135.54C204.139 134.967 203.359 134.68 202.346 134.68C201.212 134.68 200.312 135.02 199.646 135.7C198.992 136.367 198.666 137.293 198.666 138.48V144H197.246V133.48H198.606V135.42C198.992 134.78 199.526 134.287 200.206 133.94C200.899 133.58 201.699 133.4 202.606 133.4ZM220.42 129.16V144H219.06V141.92C218.633 142.627 218.067 143.167 217.36 143.54C216.667 143.913 215.88 144.1 215 144.1C214.013 144.1 213.12 143.873 212.32 143.42C211.52 142.967 210.893 142.333 210.44 141.52C209.987 140.707 209.76 139.78 209.76 138.74C209.76 137.7 209.987 136.773 210.44 135.96C210.893 135.147 211.52 134.52 212.32 134.08C213.12 133.627 214.013 133.4 215 133.4C215.853 133.4 216.62 133.58 217.3 133.94C217.993 134.287 218.56 134.8 219 135.48V129.16H220.42ZM215.12 142.84C215.853 142.84 216.513 142.673 217.1 142.34C217.7 141.993 218.167 141.507 218.5 140.88C218.847 140.253 219.02 139.54 219.02 138.74C219.02 137.94 218.847 137.227 218.5 136.6C218.167 135.973 217.7 135.493 217.1 135.16C216.513 134.813 215.853 134.64 215.12 134.64C214.373 134.64 213.7 134.813 213.1 135.16C212.513 135.493 212.047 135.973 211.7 136.6C211.367 137.227 211.2 137.94 211.2 138.74C211.2 139.54 211.367 140.253 211.7 140.88C212.047 141.507 212.513 141.993 213.1 142.34C213.7 142.673 214.373 142.84 215.12 142.84ZM232.429 144.1C231.576 144.1 230.756 143.98 229.969 143.74C229.196 143.487 228.589 143.173 228.149 142.8L228.789 141.68C229.229 142.027 229.782 142.313 230.449 142.54C231.116 142.753 231.809 142.86 232.529 142.86C233.489 142.86 234.196 142.713 234.649 142.42C235.116 142.113 235.349 141.687 235.349 141.14C235.349 140.753 235.222 140.453 234.969 140.24C234.716 140.013 234.396 139.847 234.009 139.74C233.622 139.62 233.109 139.507 232.469 139.4C231.616 139.24 230.929 139.08 230.409 138.92C229.889 138.747 229.442 138.46 229.069 138.06C228.709 137.66 228.529 137.107 228.529 136.4C228.529 135.52 228.896 134.8 229.629 134.24C230.362 133.68 231.382 133.4 232.689 133.4C233.369 133.4 234.049 133.493 234.729 133.68C235.409 133.853 235.969 134.087 236.409 134.38L235.789 135.52C234.922 134.92 233.889 134.62 232.689 134.62C231.782 134.62 231.096 134.78 230.629 135.1C230.176 135.42 229.949 135.84 229.949 136.36C229.949 136.76 230.076 137.08 230.329 137.32C230.596 137.56 230.922 137.74 231.309 137.86C231.696 137.967 232.229 138.08 232.909 138.2C233.749 138.36 234.422 138.52 234.929 138.68C235.436 138.84 235.869 139.113 236.229 139.5C236.589 139.887 236.769 140.42 236.769 141.1C236.769 142.02 236.382 142.753 235.609 143.3C234.849 143.833 233.789 144.1 232.429 144.1ZM248.874 133.48V144H247.514V142.08C247.141 142.72 246.627 143.22 245.974 143.58C245.321 143.927 244.574 144.1 243.734 144.1C242.361 144.1 241.274 143.72 240.474 142.96C239.687 142.187 239.294 141.06 239.294 139.58V133.48H240.714V139.44C240.714 140.547 240.987 141.387 241.534 141.96C242.081 142.533 242.861 142.82 243.874 142.82C244.981 142.82 245.854 142.487 246.494 141.82C247.134 141.14 247.454 140.2 247.454 139V133.48H248.874ZM255.671 144.1C254.818 144.1 253.998 143.98 253.211 143.74C252.438 143.487 251.831 143.173 251.391 142.8L252.031 141.68C252.471 142.027 253.024 142.313 253.691 142.54C254.358 142.753 255.051 142.86 255.771 142.86C256.731 142.86 257.438 142.713 257.891 142.42C258.358 142.113 258.591 141.687 258.591 141.14C258.591 140.753 258.464 140.453 258.211 140.24C257.958 140.013 257.638 139.847 257.251 139.74C256.864 139.62 256.351 139.507 255.711 139.4C254.858 139.24 254.171 139.08 253.651 138.92C253.131 138.747 252.684 138.46 252.311 138.06C251.951 137.66 251.771 137.107 251.771 136.4C251.771 135.52 252.138 134.8 252.871 134.24C253.604 133.68 254.624 133.4 255.931 133.4C256.611 133.4 257.291 133.493 257.971 133.68C258.651 133.853 259.211 134.087 259.651 134.38L259.031 135.52C258.164 134.92 257.131 134.62 255.931 134.62C255.024 134.62 254.338 134.78 253.871 135.1C253.418 135.42 253.191 135.84 253.191 136.36C253.191 136.76 253.318 137.08 253.571 137.32C253.838 137.56 254.164 137.74 254.551 137.86C254.938 137.967 255.471 138.08 256.151 138.2C256.991 138.36 257.664 138.52 258.171 138.68C258.678 138.84 259.111 139.113 259.471 139.5C259.831 139.887 260.011 140.42 260.011 141.1C260.011 142.02 259.624 142.753 258.851 143.3C258.091 143.833 257.031 144.1 255.671 144.1ZM268.176 143.36C267.91 143.6 267.576 143.787 267.176 143.92C266.79 144.04 266.383 144.1 265.956 144.1C264.97 144.1 264.21 143.833 263.676 143.3C263.143 142.767 262.876 142.013 262.876 141.04V134.68H260.996V133.48H262.876V131.18H264.296V133.48H267.496V134.68H264.296V140.96C264.296 141.587 264.45 142.067 264.756 142.4C265.076 142.72 265.53 142.88 266.116 142.88C266.41 142.88 266.69 142.833 266.956 142.74C267.236 142.647 267.476 142.513 267.676 142.34L268.176 143.36ZM274.441 133.4C275.815 133.4 276.868 133.747 277.601 134.44C278.335 135.12 278.701 136.133 278.701 137.48V144H277.341V142.36C277.021 142.907 276.548 143.333 275.921 143.64C275.308 143.947 274.575 144.1 273.721 144.1C272.548 144.1 271.615 143.82 270.921 143.26C270.228 142.7 269.881 141.96 269.881 141.04C269.881 140.147 270.201 139.427 270.841 138.88C271.495 138.333 272.528 138.06 273.941 138.06H277.281V137.42C277.281 136.513 277.028 135.827 276.521 135.36C276.015 134.88 275.275 134.64 274.301 134.64C273.635 134.64 272.995 134.753 272.381 134.98C271.768 135.193 271.241 135.493 270.801 135.88L270.161 134.82C270.695 134.367 271.335 134.02 272.081 133.78C272.828 133.527 273.615 133.4 274.441 133.4ZM273.941 142.98C274.741 142.98 275.428 142.8 276.001 142.44C276.575 142.067 277.001 141.533 277.281 140.84V139.12H273.981C272.181 139.12 271.281 139.747 271.281 141C271.281 141.613 271.515 142.1 271.981 142.46C272.448 142.807 273.101 142.98 273.941 142.98ZM282.558 133.48H283.978V144H282.558V133.48ZM283.278 131.18C282.985 131.18 282.738 131.08 282.538 130.88C282.338 130.68 282.238 130.44 282.238 130.16C282.238 129.893 282.338 129.66 282.538 129.46C282.738 129.26 282.985 129.16 283.278 129.16C283.571 129.16 283.818 129.26 284.018 129.46C284.218 129.647 284.318 129.873 284.318 130.14C284.318 130.433 284.218 130.68 284.018 130.88C283.818 131.08 283.571 131.18 283.278 131.18ZM293.289 133.4C294.609 133.4 295.656 133.787 296.429 134.56C297.216 135.32 297.609 136.433 297.609 137.9V144H296.189V138.04C296.189 136.947 295.916 136.113 295.369 135.54C294.823 134.967 294.043 134.68 293.029 134.68C291.896 134.68 290.996 135.02 290.329 135.7C289.676 136.367 289.349 137.293 289.349 138.48V144H287.929V133.48H289.289V135.42C289.676 134.78 290.209 134.287 290.889 133.94C291.583 133.58 292.383 133.4 293.289 133.4ZM305.144 133.4C306.518 133.4 307.571 133.747 308.304 134.44C309.038 135.12 309.404 136.133 309.404 137.48V144H308.044V142.36C307.724 142.907 307.251 143.333 306.624 143.64C306.011 143.947 305.278 144.1 304.424 144.1C303.251 144.1 302.318 143.82 301.624 143.26C300.931 142.7 300.584 141.96 300.584 141.04C300.584 140.147 300.904 139.427 301.544 138.88C302.198 138.333 303.231 138.06 304.644 138.06H307.984V137.42C307.984 136.513 307.731 135.827 307.224 135.36C306.718 134.88 305.978 134.64 305.004 134.64C304.338 134.64 303.698 134.753 303.084 134.98C302.471 135.193 301.944 135.493 301.504 135.88L300.864 134.82C301.398 134.367 302.038 134.02 302.784 133.78C303.531 133.527 304.318 133.4 305.144 133.4ZM304.644 142.98C305.444 142.98 306.131 142.8 306.704 142.44C307.278 142.067 307.704 141.533 307.984 140.84V139.12H304.684C302.884 139.12 301.984 139.747 301.984 141C301.984 141.613 302.218 142.1 302.684 142.46C303.151 142.807 303.804 142.98 304.644 142.98ZM318.681 133.4C319.668 133.4 320.561 133.627 321.361 134.08C322.161 134.52 322.788 135.147 323.241 135.96C323.695 136.773 323.921 137.7 323.921 138.74C323.921 139.78 323.695 140.707 323.241 141.52C322.788 142.333 322.161 142.967 321.361 143.42C320.561 143.873 319.668 144.1 318.681 144.1C317.801 144.1 317.008 143.913 316.301 143.54C315.608 143.167 315.048 142.627 314.621 141.92V144H313.261V129.16H314.681V135.48C315.121 134.8 315.681 134.287 316.361 133.94C317.055 133.58 317.828 133.4 318.681 133.4ZM318.581 142.84C319.315 142.84 319.981 142.673 320.581 142.34C321.181 141.993 321.648 141.507 321.981 140.88C322.328 140.253 322.501 139.54 322.501 138.74C322.501 137.94 322.328 137.227 321.981 136.6C321.648 135.973 321.181 135.493 320.581 135.16C319.981 134.813 319.315 134.64 318.581 134.64C317.835 134.64 317.161 134.813 316.561 135.16C315.975 135.493 315.508 135.973 315.161 136.6C314.828 137.227 314.661 137.94 314.661 138.74C314.661 139.54 314.828 140.253 315.161 140.88C315.508 141.507 315.975 141.993 316.561 142.34C317.161 142.673 317.835 142.84 318.581 142.84ZM326.816 129.16H328.236V144H326.816V129.16ZM341.347 139.18H332.547C332.627 140.273 333.047 141.16 333.807 141.84C334.567 142.507 335.527 142.84 336.687 142.84C337.34 142.84 337.94 142.727 338.487 142.5C339.034 142.26 339.507 141.913 339.907 141.46L340.707 142.38C340.24 142.94 339.654 143.367 338.947 143.66C338.254 143.953 337.487 144.1 336.647 144.1C335.567 144.1 334.607 143.873 333.767 143.42C332.94 142.953 332.294 142.313 331.827 141.5C331.36 140.687 331.127 139.767 331.127 138.74C331.127 137.713 331.347 136.793 331.787 135.98C332.24 135.167 332.854 134.533 333.627 134.08C334.414 133.627 335.294 133.4 336.267 133.4C337.24 133.4 338.114 133.627 338.887 134.08C339.66 134.533 340.267 135.167 340.707 135.98C341.147 136.78 341.367 137.7 341.367 138.74L341.347 139.18ZM336.267 134.62C335.254 134.62 334.4 134.947 333.707 135.6C333.027 136.24 332.64 137.08 332.547 138.12H340.007C339.914 137.08 339.52 136.24 338.827 135.6C338.147 134.947 337.294 134.62 336.267 134.62ZM353.852 144.1C352.812 144.1 351.878 143.873 351.052 143.42C350.238 142.967 349.598 142.333 349.132 141.52C348.665 140.693 348.432 139.767 348.432 138.74C348.432 137.713 348.665 136.793 349.132 135.98C349.598 135.167 350.238 134.533 351.052 134.08C351.878 133.627 352.812 133.4 353.852 133.4C354.758 133.4 355.565 133.58 356.272 133.94C356.992 134.287 357.558 134.8 357.972 135.48L356.912 136.2C356.565 135.68 356.125 135.293 355.592 135.04C355.058 134.773 354.478 134.64 353.852 134.64C353.092 134.64 352.405 134.813 351.792 135.16C351.192 135.493 350.718 135.973 350.372 136.6C350.038 137.227 349.872 137.94 349.872 138.74C349.872 139.553 350.038 140.273 350.372 140.9C350.718 141.513 351.192 141.993 351.792 142.34C352.405 142.673 353.092 142.84 353.852 142.84C354.478 142.84 355.058 142.713 355.592 142.46C356.125 142.207 356.565 141.82 356.912 141.3L357.972 142.02C357.558 142.7 356.992 143.22 356.272 143.58C355.552 143.927 354.745 144.1 353.852 144.1ZM364.885 144.1C363.872 144.1 362.959 143.873 362.145 143.42C361.332 142.953 360.692 142.313 360.225 141.5C359.759 140.687 359.525 139.767 359.525 138.74C359.525 137.713 359.759 136.793 360.225 135.98C360.692 135.167 361.332 134.533 362.145 134.08C362.959 133.627 363.872 133.4 364.885 133.4C365.899 133.4 366.812 133.627 367.625 134.08C368.439 134.533 369.072 135.167 369.525 135.98C369.992 136.793 370.225 137.713 370.225 138.74C370.225 139.767 369.992 140.687 369.525 141.5C369.072 142.313 368.439 142.953 367.625 143.42C366.812 143.873 365.899 144.1 364.885 144.1ZM364.885 142.84C365.632 142.84 366.299 142.673 366.885 142.34C367.485 141.993 367.952 141.507 368.285 140.88C368.619 140.253 368.785 139.54 368.785 138.74C368.785 137.94 368.619 137.227 368.285 136.6C367.952 135.973 367.485 135.493 366.885 135.16C366.299 134.813 365.632 134.64 364.885 134.64C364.139 134.64 363.465 134.813 362.865 135.16C362.279 135.493 361.812 135.973 361.465 136.6C361.132 137.227 360.965 137.94 360.965 138.74C360.965 139.54 361.132 140.253 361.465 140.88C361.812 141.507 362.279 141.993 362.865 142.34C363.465 142.673 364.139 142.84 364.885 142.84ZM376.605 130.26C375.991 130.26 375.525 130.427 375.205 130.76C374.898 131.093 374.745 131.587 374.745 132.24V133.48H377.985V134.68H374.785V144H373.365V134.68H371.485V133.48H373.365V132.18C373.365 131.22 373.638 130.46 374.185 129.9C374.745 129.34 375.531 129.06 376.545 129.06C376.945 129.06 377.331 129.12 377.705 129.24C378.078 129.347 378.391 129.507 378.645 129.72L378.165 130.78C377.751 130.433 377.231 130.26 376.605 130.26ZM383.382 130.26C382.769 130.26 382.302 130.427 381.982 130.76C381.675 131.093 381.522 131.587 381.522 132.24V133.48H384.762V134.68H381.562V144H380.142V134.68H378.262V133.48H380.142V132.18C380.142 131.22 380.415 130.46 380.962 129.9C381.522 129.34 382.309 129.06 383.322 129.06C383.722 129.06 384.109 129.12 384.482 129.24C384.855 129.347 385.169 129.507 385.422 129.72L384.942 130.78C384.529 130.433 384.009 130.26 383.382 130.26ZM395.663 139.18H386.863C386.943 140.273 387.363 141.16 388.123 141.84C388.883 142.507 389.843 142.84 391.003 142.84C391.657 142.84 392.257 142.727 392.803 142.5C393.35 142.26 393.823 141.913 394.223 141.46L395.023 142.38C394.557 142.94 393.97 143.367 393.263 143.66C392.57 143.953 391.803 144.1 390.963 144.1C389.883 144.1 388.923 143.873 388.083 143.42C387.257 142.953 386.61 142.313 386.143 141.5C385.677 140.687 385.443 139.767 385.443 138.74C385.443 137.713 385.663 136.793 386.103 135.98C386.557 135.167 387.17 134.533 387.943 134.08C388.73 133.627 389.61 133.4 390.583 133.4C391.557 133.4 392.43 133.627 393.203 134.08C393.977 134.533 394.583 135.167 395.023 135.98C395.463 136.78 395.683 137.7 395.683 138.74L395.663 139.18ZM390.583 134.62C389.57 134.62 388.717 134.947 388.023 135.6C387.343 136.24 386.957 137.08 386.863 138.12H394.323C394.23 137.08 393.837 136.24 393.143 135.6C392.463 134.947 391.61 134.62 390.583 134.62ZM407.734 139.18H398.934C399.014 140.273 399.434 141.16 400.194 141.84C400.954 142.507 401.914 142.84 403.074 142.84C403.727 142.84 404.327 142.727 404.874 142.5C405.42 142.26 405.894 141.913 406.294 141.46L407.094 142.38C406.627 142.94 406.04 143.367 405.334 143.66C404.64 143.953 403.874 144.1 403.034 144.1C401.954 144.1 400.994 143.873 400.154 143.42C399.327 142.953 398.68 142.313 398.214 141.5C397.747 140.687 397.514 139.767 397.514 138.74C397.514 137.713 397.734 136.793 398.174 135.98C398.627 135.167 399.24 134.533 400.014 134.08C400.8 133.627 401.68 133.4 402.654 133.4C403.627 133.4 404.5 133.627 405.274 134.08C406.047 134.533 406.654 135.167 407.094 135.98C407.534 136.78 407.754 137.7 407.754 138.74L407.734 139.18ZM402.654 134.62C401.64 134.62 400.787 134.947 400.094 135.6C399.414 136.24 399.027 137.08 398.934 138.12H406.394C406.3 137.08 405.907 136.24 405.214 135.6C404.534 134.947 403.68 134.62 402.654 134.62ZM431.318 133.48L427.338 144H425.998L422.678 135.38L419.358 144H418.018L414.058 133.48H415.418L418.718 142.42L422.098 133.48H423.318L426.678 142.42L430.018 133.48H431.318ZM433.457 133.48H434.877V144H433.457V133.48ZM434.177 131.18C433.883 131.18 433.637 131.08 433.437 130.88C433.237 130.68 433.137 130.44 433.137 130.16C433.137 129.893 433.237 129.66 433.437 129.46C433.637 129.26 433.883 129.16 434.177 129.16C434.47 129.16 434.717 129.26 434.917 129.46C435.117 129.647 435.217 129.873 435.217 130.14C435.217 130.433 435.117 130.68 434.917 130.88C434.717 131.08 434.47 131.18 434.177 131.18ZM444.368 143.36C444.101 143.6 443.768 143.787 443.368 143.92C442.981 144.04 442.574 144.1 442.148 144.1C441.161 144.1 440.401 143.833 439.868 143.3C439.334 142.767 439.068 142.013 439.068 141.04V134.68H437.188V133.48H439.068V131.18H440.488V133.48H443.688V134.68H440.488V140.96C440.488 141.587 440.641 142.067 440.948 142.4C441.268 142.72 441.721 142.88 442.308 142.88C442.601 142.88 442.881 142.833 443.148 142.74C443.428 142.647 443.668 142.513 443.868 142.34L444.368 143.36ZM452.313 133.4C453.633 133.4 454.679 133.787 455.453 134.56C456.239 135.32 456.633 136.433 456.633 137.9V144H455.213V138.04C455.213 136.947 454.939 136.113 454.393 135.54C453.846 134.967 453.066 134.68 452.053 134.68C450.919 134.68 450.019 135.02 449.353 135.7C448.699 136.367 448.373 137.293 448.373 138.48V144H446.953V129.16H448.373V135.32C448.759 134.707 449.293 134.233 449.973 133.9C450.653 133.567 451.433 133.4 452.313 133.4ZM465.722 133.48H467.142V144H465.722V133.48ZM466.442 131.18C466.149 131.18 465.902 131.08 465.702 130.88C465.502 130.68 465.402 130.44 465.402 130.16C465.402 129.893 465.502 129.66 465.702 129.46C465.902 129.26 466.149 129.16 466.442 129.16C466.736 129.16 466.982 129.26 467.182 129.46C467.382 129.647 467.482 129.873 467.482 130.14C467.482 130.433 467.382 130.68 467.182 130.88C466.982 131.08 466.736 131.18 466.442 131.18ZM476.453 133.4C477.773 133.4 478.82 133.787 479.593 134.56C480.38 135.32 480.773 136.433 480.773 137.9V144H479.353V138.04C479.353 136.947 479.08 136.113 478.533 135.54C477.987 134.967 477.207 134.68 476.193 134.68C475.06 134.68 474.16 135.02 473.493 135.7C472.84 136.367 472.513 137.293 472.513 138.48V144H471.093V133.48H472.453V135.42C472.84 134.78 473.373 134.287 474.053 133.94C474.747 133.58 475.547 133.4 476.453 133.4ZM490.168 143.36C489.902 143.6 489.568 143.787 489.168 143.92C488.782 144.04 488.375 144.1 487.948 144.1C486.962 144.1 486.202 143.833 485.668 143.3C485.135 142.767 484.868 142.013 484.868 141.04V134.68H482.988V133.48H484.868V131.18H486.288V133.48H489.488V134.68H486.288V140.96C486.288 141.587 486.442 142.067 486.748 142.4C487.068 142.72 487.522 142.88 488.108 142.88C488.402 142.88 488.682 142.833 488.948 142.74C489.228 142.647 489.468 142.513 489.668 142.34L490.168 143.36ZM501.542 139.18H492.742C492.822 140.273 493.242 141.16 494.002 141.84C494.762 142.507 495.722 142.84 496.882 142.84C497.536 142.84 498.136 142.727 498.682 142.5C499.229 142.26 499.702 141.913 500.102 141.46L500.902 142.38C500.436 142.94 499.849 143.367 499.142 143.66C498.449 143.953 497.682 144.1 496.842 144.1C495.762 144.1 494.802 143.873 493.962 143.42C493.136 142.953 492.489 142.313 492.022 141.5C491.556 140.687 491.322 139.767 491.322 138.74C491.322 137.713 491.542 136.793 491.982 135.98C492.436 135.167 493.049 134.533 493.822 134.08C494.609 133.627 495.489 133.4 496.462 133.4C497.436 133.4 498.309 133.627 499.082 134.08C499.856 134.533 500.462 135.167 500.902 135.98C501.342 136.78 501.562 137.7 501.562 138.74L501.542 139.18ZM496.462 134.62C495.449 134.62 494.596 134.947 493.902 135.6C493.222 136.24 492.836 137.08 492.742 138.12H500.202C500.109 137.08 499.716 136.24 499.022 135.6C498.342 134.947 497.489 134.62 496.462 134.62ZM514.193 133.48V142.72C514.193 144.507 513.753 145.827 512.873 146.68C512.006 147.547 510.693 147.98 508.933 147.98C507.959 147.98 507.033 147.833 506.153 147.54C505.286 147.26 504.579 146.867 504.033 146.36L504.753 145.28C505.259 145.733 505.873 146.087 506.593 146.34C507.326 146.593 508.093 146.72 508.893 146.72C510.226 146.72 511.206 146.407 511.833 145.78C512.459 145.167 512.773 144.207 512.773 142.9V141.56C512.333 142.227 511.753 142.733 511.033 143.08C510.326 143.427 509.539 143.6 508.673 143.6C507.686 143.6 506.786 143.387 505.973 142.96C505.173 142.52 504.539 141.913 504.073 141.14C503.619 140.353 503.393 139.467 503.393 138.48C503.393 137.493 503.619 136.613 504.073 135.84C504.539 135.067 505.173 134.467 505.973 134.04C506.773 133.613 507.673 133.4 508.673 133.4C509.566 133.4 510.373 133.58 511.093 133.94C511.813 134.3 512.393 134.82 512.833 135.5V133.48H514.193ZM508.813 142.34C509.573 142.34 510.259 142.18 510.873 141.86C511.486 141.527 511.959 141.067 512.293 140.48C512.639 139.893 512.813 139.227 512.813 138.48C512.813 137.733 512.639 137.073 512.293 136.5C511.959 135.913 511.486 135.46 510.873 135.14C510.273 134.807 509.586 134.64 508.813 134.64C508.053 134.64 507.366 134.8 506.753 135.12C506.153 135.44 505.679 135.893 505.333 136.48C504.999 137.067 504.833 137.733 504.833 138.48C504.833 139.227 504.999 139.893 505.333 140.48C505.679 141.067 506.153 141.527 506.753 141.86C507.366 142.18 508.053 142.34 508.813 142.34ZM519.524 135.54C519.857 134.833 520.35 134.3 521.004 133.94C521.67 133.58 522.49 133.4 523.464 133.4V134.78L523.124 134.76C522.017 134.76 521.15 135.1 520.524 135.78C519.897 136.46 519.584 137.413 519.584 138.64V144H518.164V133.48H519.524V135.54ZM526.035 133.48H527.455V144H526.035V133.48ZM526.755 131.18C526.461 131.18 526.215 131.08 526.015 130.88C525.815 130.68 525.715 130.44 525.715 130.16C525.715 129.893 525.815 129.66 526.015 129.46C526.215 129.26 526.461 129.16 526.755 129.16C527.048 129.16 527.295 129.26 527.495 129.46C527.695 129.647 527.795 129.873 527.795 130.14C527.795 130.433 527.695 130.68 527.495 130.88C527.295 131.08 527.048 131.18 526.755 131.18ZM536.946 143.36C536.679 143.6 536.346 143.787 535.946 143.92C535.559 144.04 535.152 144.1 534.726 144.1C533.739 144.1 532.979 143.833 532.446 143.3C531.912 142.767 531.646 142.013 531.646 141.04V134.68H529.766V133.48H531.646V131.18H533.066V133.48H536.266V134.68H533.066V140.96C533.066 141.587 533.219 142.067 533.526 142.4C533.846 142.72 534.299 142.88 534.886 142.88C535.179 142.88 535.459 142.833 535.726 142.74C536.006 142.647 536.246 142.513 536.446 142.34L536.946 143.36ZM548.175 133.48L542.915 145.26C542.489 146.247 541.995 146.947 541.435 147.36C540.875 147.773 540.202 147.98 539.415 147.98C538.909 147.98 538.435 147.9 537.995 147.74C537.555 147.58 537.175 147.34 536.855 147.02L537.515 145.96C538.049 146.493 538.689 146.76 539.435 146.76C539.915 146.76 540.322 146.627 540.655 146.36C541.002 146.093 541.322 145.64 541.615 145L542.075 143.98L537.375 133.48H538.855L542.815 142.42L546.775 133.48H548.175Z" fill="black"/>
<path d="M47.5107 24.4812L77.6546 98.2206C78.8124 101.048 80.0943 103.011 81.5002 104.11C82.9888 105.131 84.3119 105.681 85.4697 105.759V108.115C82.9887 107.958 80.0529 107.88 76.6622 107.88C73.3543 107.801 70.0049 107.762 66.6143 107.762C62.8101 107.762 59.2127 107.801 55.822 107.88C52.4313 107.88 49.7436 107.958 47.7589 108.115V105.759C51.9765 105.602 54.6229 104.935 55.698 103.757C56.8558 102.5 56.6077 99.8697 54.9537 95.8647L33.8654 41.0902L36.0983 38.0276L17.2428 84.6742C15.4234 88.9933 14.307 92.5272 13.8935 95.2757C13.5627 98.0242 13.7694 100.145 14.5137 101.637C15.3407 103.129 16.6226 104.189 18.3592 104.817C20.1786 105.367 22.3288 105.681 24.8098 105.759V108.115C22.0807 107.958 19.4757 107.88 16.9947 107.88C14.5137 107.801 11.9914 107.762 9.4277 107.762C7.60832 107.762 5.87166 107.801 4.21767 107.88C2.64638 107.88 1.24049 107.958 0 108.115V105.759C1.73669 105.445 3.51472 104.385 5.33411 102.579C7.15349 100.773 8.93153 97.7101 10.6682 93.391L38.9514 24.4812C40.2746 24.5597 41.6804 24.599 43.169 24.599C44.7403 24.599 46.1876 24.5597 47.5107 24.4812ZM56.1942 74.1905V76.5464H19.2276L20.4681 74.1905H56.1942Z" fill="black"/>
<path d="M132.607 45.5664C136.081 45.5664 138.892 45.9983 141.043 46.8622C143.193 47.6475 144.93 48.7469 146.253 50.1604C147.576 51.6525 148.527 53.6157 149.106 56.0501C149.685 58.406 149.974 61.5472 149.974 65.4737V97.1604C149.974 100.459 150.512 102.697 151.587 103.875C152.662 105.053 154.523 105.642 157.169 105.642V108.115C155.68 108.037 153.406 107.958 150.346 107.88C147.369 107.723 144.433 107.644 141.539 107.644C138.562 107.644 135.626 107.723 132.731 107.88C129.837 107.958 127.645 108.037 126.157 108.115V105.642C128.39 105.642 129.92 105.053 130.747 103.875C131.656 102.697 132.111 100.459 132.111 97.1604V60.5263C132.111 58.5631 131.946 56.8747 131.615 55.4612C131.284 53.9691 130.623 52.8304 129.63 52.0451C128.72 51.1813 127.315 50.7494 125.413 50.7494C123.262 50.7494 121.278 51.3383 119.458 52.5163C117.639 53.6942 116.15 55.3434 114.992 57.4637C113.917 59.5054 113.38 61.8221 113.38 64.4135V97.1604C113.38 100.459 113.835 102.697 114.744 103.875C115.654 105.053 117.184 105.642 119.334 105.642V108.115C118.011 108.037 115.943 107.958 113.132 107.88C110.403 107.723 107.591 107.644 104.696 107.644C101.554 107.644 98.3285 107.723 95.0205 107.88C91.7125 107.958 89.2315 108.037 87.5775 108.115V105.642C90.472 105.642 92.4982 105.053 93.656 103.875C94.8965 102.697 95.5167 100.459 95.5167 97.1604V60.0551C95.5167 56.5213 94.9378 53.9298 93.78 52.2807C92.7049 50.5531 90.6374 49.6892 87.5775 49.6892V47.2155C90.2239 47.4511 92.7876 47.5689 95.2686 47.5689C98.742 47.5689 101.967 47.4511 104.944 47.2155C108.004 46.9014 110.816 46.4695 113.38 45.9198V56.5213C115.365 52.5948 118.052 49.807 121.443 48.1579C124.834 46.4302 128.555 45.5664 132.607 45.5664ZM169.946 45.5664C173.419 45.5664 176.231 45.9983 178.381 46.8622C180.532 47.6475 182.268 48.7469 183.591 50.1604C184.915 51.6525 185.866 53.6157 186.445 56.0501C187.023 58.406 187.313 61.5472 187.313 65.4737V97.1604C187.313 100.459 187.892 102.697 189.05 103.875C190.29 105.053 192.358 105.642 195.252 105.642V108.115C193.681 108.037 191.324 107.958 188.181 107.88C185.039 107.723 181.937 107.644 178.878 107.644C175.9 107.644 172.965 107.723 170.07 107.88C167.176 107.958 164.984 108.037 163.496 108.115V105.642C165.728 105.642 167.258 105.053 168.085 103.875C168.995 102.697 169.45 100.459 169.45 97.1604V60.5263C169.45 58.5631 169.243 56.8747 168.83 55.4612C168.499 53.9691 167.796 52.8304 166.721 52.0451C165.728 51.1813 164.157 50.7494 162.007 50.7494C159.857 50.7494 157.872 51.3776 156.053 52.6341C154.233 53.8906 152.745 55.579 151.587 57.6993C150.512 59.8196 149.933 62.1754 149.85 64.7669L149.23 57.5815C151.463 52.8697 154.399 49.6892 158.037 48.0401C161.759 46.391 165.728 45.5664 169.946 45.5664Z" fill="black"/>
<path d="M242.425 45.5664C248.875 45.5664 254.209 48.0794 258.427 53.1053C262.727 58.0526 264.877 65.7093 264.877 76.0752C264.877 84.2423 263.554 90.7995 260.908 95.7469C258.344 100.694 254.912 104.267 250.612 106.466C246.311 108.665 241.598 109.764 236.47 109.764C233.08 109.764 229.937 109.215 227.043 108.115C224.148 107.016 221.667 105.21 219.6 102.697L221.336 102.108C222.825 103.835 224.562 105.131 226.546 105.995C228.614 106.859 230.64 107.291 232.625 107.291C237.173 107.291 240.564 104.856 242.797 99.9875C245.03 95.1186 246.146 87.6976 246.146 77.7243C246.146 70.9708 245.691 65.6307 244.781 61.7043C243.954 57.6992 242.714 54.8722 241.06 53.2231C239.406 51.4954 237.421 50.6316 235.106 50.6316C232.211 50.6316 229.565 51.7703 227.167 54.0476C224.768 56.2465 223.404 59.3484 223.073 63.3534L222.453 59.2306C223.941 54.7544 226.464 51.3776 230.02 49.1003C233.576 46.7444 237.711 45.5664 242.425 45.5664ZM223.445 16V105.759C221.378 105.445 219.269 105.445 217.119 105.759C214.968 106.074 212.984 106.623 211.164 107.409C209.345 108.115 207.815 108.979 206.574 110L204.714 108.94C205.044 107.84 205.251 106.741 205.334 105.642C205.499 104.542 205.582 103.443 205.582 102.343V30.1353C205.582 26.6015 205.003 24.01 203.845 22.3609C202.77 20.6332 200.703 19.7694 197.643 19.7694V17.2957C200.289 17.5313 202.853 17.6491 205.334 17.6491C208.725 17.6491 211.95 17.5313 215.01 17.2957C218.07 16.9816 220.881 16.5497 223.445 16Z" fill="black"/>
<path d="M315.234 45.5664C317.88 45.5664 320.03 46.1161 321.684 47.2155C323.338 48.2364 324.537 49.5714 325.282 51.2206C326.109 52.8697 326.522 54.5973 326.522 56.4035C326.522 59.3091 325.612 61.7043 323.793 63.589C322.056 65.3952 319.741 66.2983 316.846 66.2983C313.952 66.2983 311.677 65.6307 310.023 64.2957C308.452 62.8822 307.667 61.0368 307.667 58.7594C307.667 56.5606 308.163 54.7544 309.155 53.3408C310.23 51.8488 311.553 50.5923 313.125 49.5714C311.967 49.2573 310.809 49.2966 309.651 49.6892C308.08 49.9248 306.591 50.5531 305.186 51.5739C303.78 52.5163 302.581 53.7335 301.588 55.2256C300.596 56.6391 299.81 58.2097 299.231 59.9373C298.652 61.5865 298.363 63.1963 298.363 64.7669V95.9825C298.363 99.7519 299.314 102.304 301.216 103.639C303.201 104.974 306.137 105.642 310.023 105.642V108.115C308.121 108.037 305.351 107.958 301.712 107.88C298.073 107.723 294.269 107.644 290.3 107.644C286.992 107.644 283.642 107.723 280.252 107.88C276.861 107.958 274.297 108.037 272.561 108.115V105.642C275.455 105.642 277.481 105.053 278.639 103.875C279.88 102.697 280.5 100.459 280.5 97.1604V60.0551C280.5 56.5213 279.921 53.9298 278.763 52.2807C277.688 50.5531 275.621 49.6892 272.561 49.6892V47.2155C275.207 47.4511 277.771 47.5689 280.252 47.5689C283.725 47.5689 286.95 47.4511 289.928 47.2155C292.987 46.9014 295.799 46.4695 298.363 45.9198V56.8747C299.355 54.7544 300.678 52.8304 302.332 51.1028C303.986 49.3751 305.889 48.0401 308.039 47.0977C310.189 46.0769 312.587 45.5664 315.234 45.5664Z" fill="black"/>
<path d="M360.775 45.5664C366.812 45.5664 372.105 46.6266 376.653 48.7469C381.202 50.8672 384.758 54.2832 387.322 58.995C389.885 63.7068 391.167 69.9499 391.167 77.7243C391.167 85.4987 389.885 91.7419 387.322 96.4536C384.758 101.087 381.202 104.464 376.653 106.584C372.105 108.704 366.812 109.764 360.775 109.764C354.903 109.764 349.652 108.704 345.021 106.584C340.472 104.464 336.875 101.087 334.229 96.4536C331.665 91.7419 330.383 85.4987 330.383 77.7243C330.383 69.9499 331.665 63.7068 334.229 58.995C336.875 54.2832 340.472 50.8672 345.021 48.7469C349.652 46.6266 354.903 45.5664 360.775 45.5664ZM360.775 47.9223C357.467 47.9223 354.697 50.2782 352.464 54.99C350.231 59.6232 349.114 67.2013 349.114 77.7243C349.114 88.2473 350.231 95.8254 352.464 100.459C354.697 105.092 357.467 107.409 360.775 107.409C364.166 107.409 366.936 105.092 369.086 100.459C371.319 95.8254 372.436 88.2473 372.436 77.7243C372.436 67.2013 371.319 59.6232 369.086 54.99C366.936 50.2782 364.166 47.9223 360.775 47.9223Z" fill="black"/>
<path d="M423.473 45.5664C426.946 45.5664 429.965 45.9983 432.529 46.8622C435.175 47.6475 437.077 48.4327 438.235 49.218C441.047 51.0242 442.783 49.8463 443.445 45.6842H446.05C445.885 47.883 445.76 50.5923 445.678 53.812C445.595 56.9532 445.554 61.1546 445.554 66.416H442.949C442.535 63.5104 441.75 60.6441 440.592 57.817C439.434 54.99 437.739 52.6734 435.506 50.8672C433.356 49.061 430.544 48.1579 427.07 48.1579C424.672 48.1579 422.646 48.8254 420.992 50.1604C419.338 51.4169 418.511 53.2623 418.511 55.6967C418.511 58.0526 419.255 60.1337 420.744 61.9399C422.233 63.6675 424.135 65.3559 426.45 67.005C428.849 68.5756 431.329 70.264 433.893 72.0702C436.622 74.0334 439.103 75.9967 441.336 77.9599C443.569 79.8446 445.347 81.9257 446.67 84.203C447.993 86.4804 448.655 89.1896 448.655 92.3308C448.655 95.8647 447.58 98.9666 445.43 101.637C443.28 104.228 440.426 106.231 436.87 107.644C433.397 109.058 429.51 109.764 425.21 109.764C422.729 109.764 420.496 109.529 418.511 109.058C416.609 108.586 414.955 107.997 413.549 107.291C412.474 106.82 411.44 106.388 410.448 105.995C409.538 105.524 408.67 105.131 407.843 104.817C407.016 104.581 406.272 104.856 405.61 105.642C405.031 106.427 404.576 107.526 404.245 108.94H401.64C401.806 106.427 401.93 103.364 402.013 99.7519C402.095 96.1395 402.137 91.3492 402.137 85.381H404.742C405.238 89.6216 406.148 93.391 407.471 96.6892C408.794 99.9089 410.572 102.461 412.805 104.346C415.12 106.152 418.015 107.055 421.488 107.055C422.894 107.055 424.259 106.78 425.582 106.231C426.905 105.681 427.98 104.778 428.807 103.521C429.717 102.265 430.172 100.655 430.172 98.6917C430.172 95.2364 428.973 92.3701 426.574 90.0927C424.259 87.8154 421.281 85.3417 417.643 82.6717C414.996 80.6299 412.474 78.6274 410.076 76.6642C407.76 74.6224 405.858 72.4236 404.37 70.0677C402.881 67.6333 402.137 64.8847 402.137 61.8221C402.137 58.2882 403.129 55.3041 405.114 52.8697C407.099 50.4353 409.704 48.6291 412.929 47.4511C416.237 46.1947 419.752 45.5664 423.473 45.5664Z" fill="black"/>
<path d="M482.013 45.9198V97.1604C482.013 100.459 482.592 102.697 483.75 103.875C484.991 105.053 487.058 105.642 489.953 105.642V108.115C488.464 108.037 486.148 107.958 483.006 107.88C479.863 107.723 476.679 107.644 473.454 107.644C470.229 107.644 466.962 107.723 463.654 107.88C460.346 107.958 457.865 108.037 456.211 108.115V105.642C459.106 105.642 461.132 105.053 462.29 103.875C463.53 102.697 464.15 100.459 464.15 97.1604V60.0551C464.15 56.5213 463.572 53.9298 462.414 52.2807C461.339 50.5531 459.271 49.6892 456.211 49.6892V47.2155C458.858 47.4511 461.421 47.5689 463.902 47.5689C467.376 47.5689 470.601 47.4511 473.578 47.2155C476.638 46.9014 479.45 46.4695 482.013 45.9198Z" fill="black"/>
<path d="M512.459 108.94C508.737 108.94 505.636 108.272 503.155 106.937C500.674 105.602 498.855 103.835 497.697 101.637C496.539 99.3592 495.96 96.8855 495.96 94.2155C495.96 90.8388 496.746 88.0902 498.317 85.9699C499.971 83.8496 502.08 82.122 504.644 80.787C507.207 79.452 509.895 78.3525 512.707 77.4887C515.601 76.6249 518.33 75.8003 520.894 75.015C523.54 74.1512 525.649 73.1696 527.221 72.0702C528.875 70.8922 529.702 69.4002 529.702 67.594V58.406C529.702 56.3642 529.33 54.5581 528.585 52.9875C527.924 51.3383 526.848 50.0819 525.36 49.218C523.954 48.3542 522.093 47.9223 519.778 47.9223C518.124 47.9223 516.47 48.1579 514.816 48.6291C513.162 49.0217 511.797 49.7285 510.722 50.7494C513.038 51.5347 514.816 52.7519 516.056 54.401C517.379 55.9716 518.041 57.7778 518.041 59.8195C518.041 62.4896 517.049 64.6099 515.064 66.1805C513.162 67.751 510.888 68.5363 508.241 68.5363C505.264 68.5363 502.99 67.6725 501.418 65.9449C499.93 64.1387 499.186 61.9791 499.186 59.4662C499.186 57.1888 499.764 55.3041 500.922 53.812C502.163 52.32 503.858 50.9064 506.008 49.5714C508.324 48.315 511.094 47.3333 514.319 46.6266C517.627 45.9198 521.184 45.5664 524.988 45.5664C528.792 45.5664 532.224 45.9591 535.284 46.7444C538.344 47.4511 540.907 48.7861 542.975 50.7494C544.877 52.5556 546.117 54.7937 546.696 57.4637C547.275 60.0551 547.565 63.3534 547.565 67.3584V99.3985C547.565 101.362 547.771 102.736 548.185 103.521C548.598 104.228 549.301 104.581 550.294 104.581C551.038 104.581 551.741 104.385 552.402 103.992C553.147 103.6 553.932 103.129 554.759 102.579L556 104.581C554.263 105.995 552.237 107.094 549.922 107.88C547.689 108.586 545.166 108.94 542.355 108.94C539.295 108.94 536.855 108.547 535.036 107.762C533.216 106.898 531.893 105.759 531.066 104.346C530.322 102.932 529.95 101.283 529.95 99.3985C527.965 102.383 525.567 104.739 522.755 106.466C519.943 108.115 516.511 108.94 512.459 108.94ZM521.266 101.401C522.92 101.401 524.409 101.048 525.732 100.341C527.138 99.5556 528.461 98.2991 529.702 96.5714V72.4236C528.957 73.6015 527.924 74.6617 526.6 75.604C525.277 76.5464 523.871 77.528 522.383 78.5489C520.894 79.4912 519.447 80.5514 518.041 81.7293C516.718 82.9073 515.643 84.3601 514.816 86.0877C513.989 87.8154 513.575 89.8964 513.575 92.3308C513.575 95.3935 514.278 97.6708 515.684 99.1629C517.09 100.655 518.951 101.401 521.266 101.401Z" fill="black"/>
<path d="M484.021 15.72C482.294 16.8133 480.453 17.5067 478.498 17.8C476.543 18.0933 475.07 17.92 474.08 17.28C474.055 17.28 473.972 17.2267 473.833 17.12C473.693 17.0133 473.547 16.9133 473.395 16.82C473.242 16.7267 473.09 16.68 472.938 16.68V27.88C474.055 26.52 475.324 25.3867 476.746 24.48C477.533 23.9733 478.441 23.6067 479.469 23.38C480.498 23.1533 481.469 23.0533 482.383 23.08C483.297 23.1067 484.154 23.1667 484.954 23.26C485.753 23.3533 486.382 23.4667 486.839 23.6L487.562 23.76C487.486 23.92 487.366 24.1333 487.201 24.4C487.036 24.6667 486.699 25.1667 486.191 25.9C485.684 26.6333 485.163 27.3333 484.63 28C484.097 28.6667 483.43 29.38 482.63 30.14C481.831 30.9 481.037 31.5333 480.25 32.04C476.949 34.12 474.512 35.2133 472.938 35.32V38.44C472.938 39.1333 472.703 39.7333 472.233 40.24C471.763 40.7467 471.186 41 470.5 41C469.814 41 469.237 40.7467 468.767 40.24C468.297 39.7333 468.062 39.1333 468.062 38.44V35.8C466.869 35.96 465.479 35.84 463.892 35.44C462.305 35.04 460.839 34.4267 459.493 33.6C458.706 33.12 457.957 32.46 457.246 31.62C456.535 30.78 455.958 29.94 455.513 29.1C455.069 28.26 454.682 27.44 454.352 26.64C454.021 25.84 453.787 25.2067 453.647 24.74C453.507 24.2733 453.438 24.0267 453.438 24C453.641 23.92 453.907 23.8333 454.237 23.74C454.567 23.6467 455.208 23.5133 456.161 23.34C457.113 23.1667 458.027 23.0733 458.903 23.06C459.779 23.0467 460.737 23.1667 461.778 23.42C462.819 23.6733 463.708 24.0933 464.444 24.68C465.181 25.2667 466.387 26.88 468.062 29.52V19.24C467.91 19.24 467.758 19.2867 467.605 19.38C467.453 19.4733 467.307 19.5733 467.167 19.68C467.028 19.7867 466.945 19.8533 466.92 19.88C465.93 20.4933 464.457 20.6533 462.502 20.36C460.547 20.0667 458.706 19.3733 456.979 18.28C456.192 17.7733 455.443 17.08 454.732 16.2C454.021 15.32 453.457 14.48 453.038 13.68C452.619 12.88 452.238 12.02 451.895 11.1C451.552 10.18 451.33 9.54667 451.229 9.2C451.127 8.85333 451.051 8.58667 451 8.4C451.178 8.34667 451.425 8.28 451.743 8.2C452.06 8.12 452.676 8.02 453.59 7.9C454.504 7.78 455.38 7.71333 456.218 7.7C457.056 7.68667 458.001 7.79333 459.055 8.02C460.109 8.24667 461.029 8.61333 461.816 9.12C463.391 10.1067 464.755 11.3 465.911 12.7C467.066 14.1 467.783 15.4267 468.062 16.68V10.24C468.062 10.1867 468.075 10.08 468.101 9.92C466.958 9.6 465.93 9.12 465.016 8.48C464.127 7.84 463.327 6.86 462.616 5.54C461.905 4.22 461.423 3.05333 461.169 2.04L460.75 0.52C460.877 0.493333 461.055 0.446667 461.283 0.38C461.512 0.313333 461.95 0.233333 462.597 0.14C463.245 0.0466667 463.867 0 464.463 0C465.06 0 465.739 0.0866667 466.501 0.26C467.263 0.433333 467.923 0.72 468.481 1.12C469.726 1.97333 470.779 3.08667 471.643 4.46C472.506 5.83333 472.938 6.90667 472.938 7.68V14.12C473.217 12.8667 473.934 11.54 475.089 10.14C476.245 8.74 477.609 7.54667 479.184 6.56C479.971 6.05333 480.878 5.68667 481.907 5.46C482.935 5.23333 483.906 5.13333 484.82 5.16C485.734 5.18667 486.591 5.24667 487.391 5.34C488.191 5.43333 488.819 5.53333 489.276 5.64L490 5.84C489.949 6.02667 489.879 6.28667 489.791 6.62C489.702 6.95333 489.479 7.58667 489.124 8.52C488.769 9.45333 488.381 10.32 487.962 11.12C487.543 11.92 486.979 12.76 486.268 13.64C485.557 14.52 484.808 15.2133 484.021 15.72Z" fill="#D78B1A"/>
</svg>
