<svg width="1440" height="627" viewBox="0 0 1440 627" fill="none" xmlns="http://www.w3.org/2000/svg">
<rect width="1441" height="624" fill="#EBC58C"/>
<g clip-path="url(#clip0_181_326)">
<path d="M1065.02 611.935C1064.64 611.953 1064.26 611.853 1063.94 611.649C1063.62 611.444 1063.37 611.146 1063.22 610.794C1063.07 610.442 1063.04 610.054 1063.12 609.681C1063.2 609.308 1063.39 608.969 1063.67 608.71L1063.8 608.203C1063.78 608.163 1063.77 608.122 1063.75 608.082C1062.04 603.997 1051.13 615.384 1050.66 619.223C1050.45 620.92 1050.54 622.64 1050.92 624.307C1047.38 616.583 1045.55 608.188 1045.54 599.691C1045.53 597.559 1045.65 595.429 1045.89 593.31C1046.09 591.573 1046.36 589.848 1046.7 588.136C1048.6 578.845 1052.66 570.136 1058.57 562.726C1061.95 562.915 1064.91 562.399 1065.19 555.841C1065.24 554.675 1066.11 553.665 1066.3 552.515C1065.98 552.558 1065.65 552.584 1065.33 552.605C1065.22 552.611 1065.12 552.616 1065.02 552.621L1064.98 552.623C1064.63 552.639 1064.27 552.552 1063.97 552.372C1063.66 552.193 1063.41 551.929 1063.26 551.611C1063.1 551.294 1063.03 550.937 1063.07 550.584C1063.11 550.23 1063.25 549.896 1063.47 549.62C1063.61 549.448 1063.75 549.276 1063.89 549.105C1064.1 548.84 1064.32 548.581 1064.53 548.316C1064.55 548.291 1064.57 548.264 1064.6 548.236C1064.84 547.934 1065.08 547.638 1065.33 547.336C1064.88 546.646 1064.28 546.068 1063.58 545.647C1061.14 544.217 1057.78 545.207 1056.02 547.415C1054.26 549.624 1053.92 552.722 1054.54 555.481C1055.14 557.829 1056.14 560.057 1057.49 562.069C1057.35 562.239 1057.22 562.403 1057.08 562.572C1054.67 565.684 1052.56 569.026 1050.8 572.55C1051.3 568.642 1045.19 554.529 1042.83 551.539C1039.99 547.948 1034.18 549.515 1033.68 554.067C1033.67 554.111 1033.67 554.155 1033.66 554.2C1034.01 554.398 1034.36 554.608 1034.69 554.831C1035.12 555.113 1035.44 555.517 1035.63 555.989C1035.82 556.461 1035.86 556.979 1035.75 557.475C1035.64 557.972 1035.39 558.424 1035.02 558.771C1034.65 559.119 1034.18 559.346 1033.68 559.424L1033.63 559.432C1028.93 566.148 1043.98 583.63 1047.75 579.705C1045.98 584.739 1044.86 589.984 1044.44 595.306C1044.2 598.446 1044.22 601.601 1044.48 604.738L1044.47 604.627C1043.63 597.793 1029.27 587.632 1025.08 588.479C1022.66 588.966 1020.28 588.855 1020.65 591.297C1020.65 591.336 1020.66 591.375 1020.67 591.414C1021.32 591.679 1021.95 591.985 1022.56 592.33C1022.92 592.528 1023.26 592.739 1023.59 592.961C1024.02 593.244 1024.34 593.647 1024.53 594.119C1024.72 594.591 1024.76 595.109 1024.65 595.606C1024.54 596.102 1024.29 596.554 1023.92 596.902C1023.55 597.249 1023.08 597.477 1022.58 597.554L1022.53 597.562C1022.49 597.568 1022.46 597.573 1022.42 597.578C1020.28 604.946 1036.13 616.836 1045.77 613.053H1045.77C1046.73 617.21 1048.11 621.257 1049.9 625.128H1064.65C1064.7 624.963 1064.75 624.794 1064.8 624.63C1063.43 624.716 1062.06 624.634 1060.72 624.386C1061.81 623.041 1062.9 621.685 1064 620.34C1064.02 620.315 1064.05 620.288 1064.07 620.261C1064.62 619.572 1065.18 618.889 1065.74 618.201L1065.74 618.2C1065.77 616.089 1065.53 613.984 1065.02 611.935L1065.02 611.935ZM1048.13 578.651L1048.14 578.64L1048.13 578.661V578.651ZM1044.86 608.154L1044.74 607.868C1044.74 607.662 1044.74 607.455 1044.74 607.243C1044.74 607.185 1044.73 607.127 1044.73 607.069C1044.77 607.434 1044.82 607.799 1044.87 608.165L1044.86 608.154Z" fill="#D78B1A"/>
<path d="M1294.62 285.654C1294.63 292.62 1292.01 299.332 1287.28 304.436C1286.92 304.828 1286.54 305.207 1286.15 305.573C1271.89 294.576 1256.94 284.515 1241.38 275.453C1241.57 274.965 1241.78 274.483 1242 274.008C1244.65 268.297 1249.16 263.663 1254.79 260.872C1260.43 258.081 1266.84 257.299 1272.98 258.657C1279.12 260.015 1284.61 263.431 1288.54 268.34C1292.48 273.249 1294.62 279.357 1294.62 285.654Z" fill="#D78B1A"/>
<path d="M1317 341.924L1316.98 342.213C1298.83 340.961 1280.68 339.706 1262.53 338.449C1249.42 337.543 1235.86 336.516 1224.27 330.298C1219.88 327.94 1215.59 324.793 1210.61 324.574C1204.42 324.298 1199.02 328.634 1194.78 333.156C1169.69 359.929 1162.43 400.867 1134.28 424.384C1152.03 380.524 1173.22 338.144 1197.66 297.64C1202.17 290.157 1207.53 282.166 1215.91 279.725C1223.9 277.393 1232.08 280.798 1239.44 285.166C1241.02 286.103 1242.56 287.086 1244.05 288.063C1255.39 295.501 1266.54 303.224 1277.51 311.232C1290.98 321.054 1304.15 331.285 1317 341.924Z" fill="#F2F2F2"/>
<path d="M1375.7 398.709C1356.3 371.272 1333.77 346.206 1308.55 324.022C1301.3 317.637 1293.83 311.487 1286.15 305.573C1271.89 294.576 1256.94 284.515 1241.38 275.453C1236.28 272.485 1231.11 269.635 1225.89 266.903C1221.83 264.79 1217.51 262.856 1212.83 263.158C1209.56 263.439 1206.43 264.644 1203.81 266.634C1198.06 270.841 1194.25 277.412 1191.12 283.675C1188.37 289.167 1185.81 294.769 1183.2 300.338C1182.1 302.708 1180.99 305.072 1179.84 307.423C1175.84 315.658 1171.74 323.848 1167.55 331.993C1162.16 342.49 1156.6 352.906 1150.89 363.244C1138.9 384.975 1126.24 406.314 1112.92 427.261C1093.34 458.05 1072.39 487.904 1050.08 516.825C1047.34 520.365 1046.21 521.187 1043.44 524.701C1042.79 525.523 1041.65 524.367 1042.29 523.551C1065.44 494.234 1085.6 466.535 1105.92 435.175C1121.24 411.53 1135.72 387.36 1149.36 362.666C1153.74 354.746 1158.03 346.776 1162.22 338.757C1169.01 325.775 1175.56 312.671 1181.88 299.445C1183.55 295.964 1185.2 292.469 1186.83 288.962C1192.02 277.83 1199.57 261.276 1214.16 261.501C1218.45 261.565 1222.43 263.306 1226.18 265.233C1230.01 267.205 1233.77 269.299 1237.52 271.425C1239.02 272.273 1240.51 273.134 1242 274.008C1247.89 277.438 1253.7 281.012 1259.41 284.729C1268.95 290.927 1278.24 297.497 1287.28 304.436C1291.56 307.732 1295.79 311.102 1299.95 314.547C1326.06 336.189 1349.53 360.834 1369.89 387.975C1372.34 391.244 1374.75 394.55 1377.1 397.893C1377.7 398.747 1376.3 399.556 1375.7 398.709Z" fill="#E4E4E4"/>
<path d="M1309.99 315.846C1310.84 314.899 1311.68 313.953 1312.53 313.006C1319.26 305.553 1326.48 298.186 1335.71 293.913C1340.12 291.811 1344.93 290.694 1349.8 290.64C1354.84 290.779 1359.8 291.863 1364.43 293.837C1366.64 294.719 1368.79 295.719 1370.91 296.785C1373.34 298.007 1375.72 299.311 1378.09 300.625C1382.54 303.092 1386.93 305.666 1391.26 308.349C1399.88 313.688 1408.23 319.434 1416.31 325.587C1420.5 328.779 1424.61 332.074 1428.62 335.475C1432.36 338.634 1436.02 341.877 1439.6 345.205C1440.37 345.914 1441.51 344.767 1440.75 344.059C1439.8 343.177 1438.85 342.301 1437.89 341.435C1435.19 338.991 1432.45 336.593 1429.66 334.242C1424.58 329.947 1419.37 325.818 1414.03 321.855C1405.72 315.689 1397.13 309.941 1388.25 304.612C1383.81 301.95 1379.31 299.401 1374.75 296.963C1373.37 296.228 1371.98 295.508 1370.57 294.827C1367.38 293.211 1364.05 291.856 1360.64 290.776C1355.8 289.208 1350.69 288.704 1345.64 289.299C1340.76 290.009 1336.07 291.637 1331.8 294.097C1322.73 299.176 1315.69 307.029 1308.85 314.694C1308.16 315.473 1309.3 316.625 1309.99 315.846Z" fill="#E4E4E4"/>
<path d="M1124.17 393.084L1102.43 385.12L1091.64 381.165C1088.16 379.759 1084.6 378.532 1080.99 377.489C1077.83 376.586 1074.48 376.629 1071.35 377.613C1068.55 378.649 1066 380.237 1063.83 382.284C1061.61 384.328 1059.55 386.534 1057.66 388.884C1055.31 391.712 1053 394.571 1050.67 397.42C1041.08 409.177 1031.54 420.986 1022.07 432.845C1012.6 444.705 1003.2 456.614 993.854 468.575C984.488 480.564 975.187 492.604 965.95 504.693C964.819 506.174 963.688 507.656 962.558 509.139C961.934 509.958 960.527 509.15 961.16 508.319C970.465 496.108 979.835 483.947 989.27 471.836C998.728 459.696 1008.25 447.607 1017.84 435.57C1027.43 423.533 1037.08 411.548 1046.8 399.615C1049.22 396.642 1051.65 393.673 1054.08 390.707C1056.12 388.205 1058.15 385.676 1060.4 383.347C1064.52 379.072 1069.68 375.294 1075.85 375.192C1079.47 375.131 1082.98 376.285 1086.35 377.506C1089.99 378.823 1093.61 380.165 1097.24 381.494L1119.12 389.514L1124.6 391.519C1125.57 391.875 1125.15 393.444 1124.17 393.084H1124.17Z" fill="#E4E4E4"/>
<path d="M1338.57 303.292C1349.62 297.605 1363.76 298.718 1373.91 305.823C1354.55 309.17 1335.41 313.647 1316.57 319.232C1324.39 314.639 1330.51 307.444 1338.57 303.292Z" fill="#F2F2F2"/>
<path d="M1374.02 305.804L1376.14 307.535C1375.43 306.929 1374.68 306.361 1373.91 305.823C1373.95 305.817 1373.98 305.81 1374.02 305.804Z" fill="#F2F2F2"/>
<path d="M1064.65 393.163C1066.79 390.554 1069.1 387.822 1072.3 386.763L1075.29 386.881C1052.54 427.143 1021.83 462.324 985.03 490.265C1011.57 457.898 1038.11 425.53 1064.65 393.163Z" fill="#F2F2F2"/>
<path d="M1439.24 625.929C1439.24 626.041 1439.22 626.151 1439.18 626.254C1439.13 626.358 1439.07 626.451 1438.99 626.53C1438.91 626.609 1438.82 626.672 1438.72 626.715C1438.61 626.757 1438.5 626.779 1438.39 626.779L1393.47 626.8L1382.26 626.807L1374.87 626.814H1366.7L1362.24 626.821L1349.85 626.829L1154.94 626.929L1153.46 626.936L1066.28 626.964H1064.84L990.629 626.993H989.189L966.025 627C965.8 627 965.584 626.91 965.425 626.751C965.266 626.592 965.177 626.376 965.177 626.15C965.177 625.925 965.266 625.709 965.425 625.549C965.584 625.39 965.8 625.3 966.025 625.3L989.431 625.293H990.871L1065.06 625.265H1066.5L1153 625.236H1154.48L1228.19 625.208H1229.16L1348.49 625.136L1360.86 625.129L1366.52 625.122L1375.46 625.115H1383.1L1395.14 625.108L1438.39 625.079C1438.5 625.079 1438.61 625.1 1438.72 625.143C1438.82 625.186 1438.91 625.248 1438.99 625.327C1439.07 625.406 1439.13 625.5 1439.18 625.603C1439.22 625.706 1439.24 625.817 1439.24 625.929Z" fill="#CACACA"/>
<path d="M1358.05 580.052L1354.18 563.387C1360.44 557.12 1368.08 552.525 1376.45 550C1367.62 563.149 1374.28 581.486 1370.1 596.891C1368.76 601.686 1366.39 606.107 1363.17 609.829C1359.95 613.55 1355.96 616.476 1351.49 618.389L1343.54 627.347C1340.09 620.118 1338.21 612.205 1338.02 604.152C1337.82 596.099 1339.32 588.098 1342.41 580.701C1344.18 576.569 1346.45 572.684 1349.17 569.137C1353.23 574.744 1358.05 580.052 1358.05 580.052Z" fill="#F5E2C6"/>
<path d="M1335.77 576.371L1325.11 563.234C1328 554.745 1332.86 547.112 1339.26 541C1337.04 556.834 1350.92 570.181 1353.83 585.895C1354.7 590.803 1354.49 595.85 1353.22 600.664C1351.94 605.477 1349.64 609.933 1346.47 613.701L1343.22 625.382C1337.01 620.496 1331.91 614.28 1328.25 607.162C1324.6 600.044 1322.48 592.193 1322.05 584.15C1321.86 579.635 1322.21 575.113 1323.1 570.689C1329.16 573.839 1335.77 576.371 1335.77 576.371Z" fill="#D78B1A"/>
</g>
<defs>
<clipPath id="clip0_181_326">
<rect width="480" height="369" fill="white" transform="translate(961 258)"/>
</clipPath>
</defs>
</svg>
