<svg width="186" height="37" viewBox="0 0 186 37" fill="none" xmlns="http://www.w3.org/2000/svg">
<path d="M15.8939 8.191L25.978 32.8592C26.3653 33.8049 26.7941 34.4617 27.2644 34.8295C27.7624 35.171 28.2051 35.3549 28.5924 35.3812V36.1693C27.7624 36.1168 26.7803 36.0905 25.646 36.0905C24.5394 36.0642 23.4189 36.0511 22.2846 36.0511C21.012 36.0511 19.8086 36.0642 18.6743 36.0905C17.54 36.0905 16.6409 36.1168 15.9769 36.1693V35.3812C17.3878 35.3286 18.2731 35.1053 18.6328 34.7113C19.0201 34.2909 18.9371 33.4109 18.3838 32.0711L11.3291 13.7473L12.076 12.7227L5.76827 28.3275C5.15963 29.7724 4.78615 30.9546 4.64782 31.874C4.53716 32.7935 4.60632 33.5028 4.85531 34.002C5.13197 34.5011 5.56078 34.8558 6.14176 35.0659C6.7504 35.2498 7.46971 35.3549 8.29968 35.3812V36.1693C7.38671 36.1168 6.51525 36.0905 5.68528 36.0905C4.85531 36.0642 4.01151 36.0511 3.15387 36.0511C2.54523 36.0511 1.96426 36.0642 1.41095 36.0905C0.885301 36.0905 0.414984 36.1168 0 36.1693V35.3812C0.580977 35.2761 1.17579 34.9214 1.78443 34.3172C2.39308 33.713 2.98789 32.6884 3.56886 31.2435L13.0305 8.191C13.4731 8.21727 13.9435 8.2304 14.4414 8.2304C14.9671 8.2304 15.4512 8.21727 15.8939 8.191ZM18.7988 24.8204V25.6085H6.43224L6.84724 24.8204H18.7988Z" fill="black"/>
<path d="M44.3615 15.2447C45.5234 15.2447 46.464 15.3892 47.1833 15.6781C47.9026 15.9409 48.4836 16.3086 48.9263 16.7815C49.3689 17.2807 49.6871 17.9374 49.8807 18.7518C50.0744 19.5399 50.1712 20.5908 50.1712 21.9043V32.5045C50.1712 33.6079 50.3511 34.3566 50.7107 34.7507C51.0704 35.1447 51.6928 35.3418 52.5781 35.3418V36.1693C52.0801 36.143 51.3194 36.1168 50.2957 36.0905C49.2998 36.0379 48.3176 36.0117 47.3493 36.0117C46.3534 36.0117 45.3712 36.0379 44.403 36.0905C43.4347 36.1168 42.7015 36.143 42.2035 36.1693V35.3418C42.9505 35.3418 43.4623 35.1447 43.739 34.7507C44.0433 34.3566 44.1955 33.6079 44.1955 32.5045V20.2493C44.1955 19.5925 44.1401 19.0277 44.0295 18.5548C43.9188 18.0556 43.6975 17.6747 43.3655 17.412C43.0612 17.123 42.5909 16.9785 41.9545 16.9785C41.2352 16.9785 40.5713 17.1756 39.9626 17.5696C39.354 17.9637 38.856 18.5154 38.4687 19.2247C38.109 19.9077 37.9292 20.6827 37.9292 21.5497V32.5045C37.9292 33.6079 38.0814 34.3566 38.3857 34.7507C38.69 35.1447 39.2018 35.3418 39.9211 35.3418V36.1693C39.4785 36.143 38.7868 36.1168 37.8462 36.0905C36.9332 36.0379 35.9926 36.0117 35.0243 36.0117C33.973 36.0117 32.8941 36.0379 31.7874 36.0905C30.6808 36.1168 29.8508 36.143 29.2975 36.1693V35.3418C30.2658 35.3418 30.9436 35.1447 31.331 34.7507C31.7459 34.3566 31.9534 33.6079 31.9534 32.5045V20.0916C31.9534 18.9094 31.7598 18.0425 31.3724 17.4908C31.0128 16.9129 30.3212 16.6239 29.2975 16.6239V15.7964C30.1828 15.8752 31.0405 15.9146 31.8704 15.9146C33.0324 15.9146 34.1113 15.8752 35.1073 15.7964C36.1309 15.6913 37.0716 15.5468 37.9292 15.3629V18.9094C38.5932 17.5959 39.4923 16.6633 40.6266 16.1116C41.7609 15.5337 43.0058 15.2447 44.3615 15.2447ZM56.8525 15.2447C58.0144 15.2447 58.9551 15.3892 59.6744 15.6781C60.3937 15.9409 60.9746 16.3086 61.4173 16.7815C61.8599 17.2807 62.1781 17.9374 62.3718 18.7518C62.5654 19.5399 62.6622 20.5908 62.6622 21.9043V32.5045C62.6622 33.6079 62.8559 34.3566 63.2432 34.7507C63.6582 35.1447 64.3498 35.3418 65.3181 35.3418V36.1693C64.7925 36.143 64.004 36.1168 62.9527 36.0905C61.9014 36.0379 60.864 36.0117 59.8404 36.0117C58.8444 36.0117 57.8623 36.0379 56.894 36.0905C55.9257 36.1168 55.1925 36.143 54.6945 36.1693V35.3418C55.4415 35.3418 55.9533 35.1447 56.23 34.7507C56.5343 34.3566 56.6865 33.6079 56.6865 32.5045V20.2493C56.6865 19.5925 56.6173 19.0277 56.479 18.5548C56.3683 18.0556 56.1332 17.6747 55.7735 17.412C55.4415 17.123 54.9159 16.9785 54.1966 16.9785C53.4773 16.9785 52.8133 17.1887 52.2046 17.609C51.596 18.0294 51.098 18.5942 50.7107 19.3035C50.3511 20.0128 50.1574 20.8009 50.1297 21.6679L49.9222 19.2641C50.6692 17.6879 51.6513 16.6239 52.8686 16.0722C54.1136 15.5205 55.4415 15.2447 56.8525 15.2447Z" fill="black"/>
<path d="M81.0989 15.2447C83.2568 15.2447 85.0412 16.0853 86.4522 17.7667C87.8908 19.4217 88.6101 21.9831 88.6101 25.4509C88.6101 28.183 88.1674 30.3766 87.2821 32.0317C86.4245 33.6867 85.2764 34.882 83.8378 35.6176C82.3992 36.3532 80.8222 36.721 79.1069 36.721C77.9727 36.721 76.9214 36.5371 75.9531 36.1693C74.9848 35.8015 74.1548 35.1973 73.4632 34.3566L74.0441 34.1596C74.5421 34.7375 75.1231 35.171 75.7871 35.46C76.4787 35.749 77.1565 35.8935 77.8205 35.8935C79.3421 35.8935 80.4764 35.0791 81.2234 33.4503C81.9703 31.8215 82.3438 29.3389 82.3438 26.0025C82.3438 23.7433 82.1917 21.9568 81.8873 20.6433C81.6107 19.3035 81.1957 18.3578 80.6424 17.8061C80.0891 17.2281 79.4251 16.9391 78.6505 16.9391C77.6822 16.9391 76.7969 17.3201 75.9946 18.0819C75.1923 18.8175 74.7358 19.8552 74.6251 21.195L74.4176 19.8158C74.9156 18.3184 75.7594 17.1887 76.949 16.4269C78.1387 15.6387 79.5219 15.2447 81.0989 15.2447ZM74.7496 5.35376V35.3812C74.058 35.2761 73.3525 35.2761 72.6332 35.3812C71.9139 35.4863 71.2499 35.6702 70.6413 35.9329C70.0326 36.1693 69.5208 36.4583 69.1058 36.7998L68.4834 36.4451C68.594 36.0773 68.6632 35.7096 68.6908 35.3418C68.7462 34.974 68.7738 34.6062 68.7738 34.2384V10.0825C68.7738 8.9003 68.5802 8.03337 68.1929 7.48169C67.8332 6.90373 67.1416 6.61475 66.118 6.61475V5.78723C67.0033 5.86604 67.8609 5.90545 68.6908 5.90545C69.8251 5.90545 70.9041 5.86604 71.9277 5.78723C72.9514 5.68214 73.892 5.53766 74.7496 5.35376Z" fill="black"/>
<path d="M105.456 15.2447C106.341 15.2447 107.06 15.4286 107.614 15.7964C108.167 16.1379 108.568 16.5845 108.817 17.1362C109.094 17.6879 109.232 18.2658 109.232 18.87C109.232 19.8421 108.928 20.6433 108.319 21.2738C107.738 21.878 106.964 22.1802 105.995 22.1802C105.027 22.1802 104.266 21.9568 103.713 21.5102C103.187 21.0374 102.924 20.42 102.924 19.6582C102.924 18.9226 103.09 18.3184 103.422 17.8455C103.782 17.3463 104.225 16.926 104.75 16.5845C104.363 16.4794 103.976 16.4925 103.588 16.6239C103.063 16.7027 102.565 16.9129 102.094 17.2544C101.624 17.5696 101.223 17.9768 100.891 18.476C100.559 18.9489 100.296 19.4743 100.103 20.0522C99.9089 20.6039 99.8121 21.1425 99.8121 21.6679V32.1105C99.8121 33.3715 100.13 34.2253 100.767 34.6719C101.43 35.1185 102.413 35.3418 103.713 35.3418V36.1693C103.077 36.143 102.15 36.1168 100.932 36.0905C99.7152 36.0379 98.4426 36.0117 97.1147 36.0117C96.008 36.0117 94.8876 36.0379 93.7533 36.0905C92.619 36.1168 91.7614 36.143 91.1804 36.1693V35.3418C92.1487 35.3418 92.8265 35.1447 93.2138 34.7507C93.6288 34.3566 93.8363 33.6079 93.8363 32.5045V20.0916C93.8363 18.9094 93.6426 18.0425 93.2553 17.4908C92.8957 16.9129 92.204 16.6239 91.1804 16.6239V15.7964C92.0657 15.8752 92.9233 15.9146 93.7533 15.9146C94.9152 15.9146 95.9942 15.8752 96.9902 15.7964C98.0138 15.6913 98.9544 15.5468 99.8121 15.3629V19.0277C100.144 18.3184 100.587 17.6747 101.14 17.0968C101.693 16.5188 102.33 16.0722 103.049 15.757C103.768 15.4154 104.571 15.2447 105.456 15.2447Z" fill="black"/>
<path d="M120.691 15.2447C122.711 15.2447 124.481 15.5993 126.003 16.3086C127.524 17.018 128.714 18.1607 129.572 19.737C130.429 21.3132 130.858 23.4017 130.858 26.0025C130.858 28.6033 130.429 30.6919 129.572 32.2681C128.714 33.8181 127.524 34.9477 126.003 35.657C124.481 36.3663 122.711 36.721 120.691 36.721C118.727 36.721 116.97 36.3663 115.421 35.657C113.899 34.9477 112.696 33.8181 111.81 32.2681C110.953 30.6919 110.524 28.6033 110.524 26.0025C110.524 23.4017 110.953 21.3132 111.81 19.737C112.696 18.1607 113.899 17.018 115.421 16.3086C116.97 15.5993 118.727 15.2447 120.691 15.2447ZM120.691 16.0328C119.584 16.0328 118.658 16.8209 117.911 18.3972C117.164 19.9471 116.79 22.4823 116.79 26.0025C116.79 29.5228 117.164 32.0579 117.911 33.6079C118.658 35.1579 119.584 35.9329 120.691 35.9329C121.825 35.9329 122.752 35.1579 123.471 33.6079C124.218 32.0579 124.592 29.5228 124.592 26.0025C124.592 22.4823 124.218 19.9471 123.471 18.3972C122.752 16.8209 121.825 16.0328 120.691 16.0328Z" fill="black"/>
<path d="M141.665 15.2447C142.827 15.2447 143.837 15.3892 144.695 15.6781C145.58 15.9409 146.216 16.2036 146.604 16.4663C147.544 17.0705 148.125 16.6764 148.347 15.2841H149.218C149.163 16.0197 149.121 16.926 149.094 18.0031C149.066 19.0539 149.052 20.4594 149.052 22.2196H148.181C148.042 21.2475 147.78 20.2887 147.392 19.3429C147.005 18.3972 146.438 17.6222 145.691 17.018C144.971 16.4137 144.031 16.1116 142.869 16.1116C142.067 16.1116 141.389 16.3349 140.835 16.7815C140.282 17.2019 140.005 17.8192 140.005 18.6336C140.005 19.4217 140.255 20.1179 140.752 20.7221C141.25 21.3001 141.887 21.8649 142.661 22.4166C143.464 22.942 144.294 23.5068 145.151 24.111C146.064 24.7678 146.894 25.4246 147.641 26.0813C148.388 26.7118 148.983 27.408 149.426 28.1699C149.868 28.9317 150.09 29.8381 150.09 30.8889C150.09 32.0711 149.73 33.1088 149.011 34.002C148.291 34.8689 147.337 35.5388 146.147 36.0117C144.985 36.4845 143.685 36.721 142.246 36.721C141.416 36.721 140.669 36.6422 140.005 36.4845C139.369 36.3269 138.816 36.1299 138.346 35.8935C137.986 35.7358 137.64 35.5913 137.308 35.46C137.004 35.3024 136.713 35.171 136.437 35.0659C136.16 34.9871 135.911 35.0791 135.69 35.3418C135.496 35.6045 135.344 35.9723 135.233 36.4451H134.362C134.417 35.6045 134.459 34.5799 134.486 33.3715C134.514 32.163 134.528 30.5605 134.528 28.5639H135.399C135.565 29.9825 135.87 31.2435 136.312 32.3469C136.755 33.424 137.35 34.2778 138.097 34.9083C138.871 35.5125 139.84 35.8146 141.001 35.8146C141.472 35.8146 141.928 35.7227 142.371 35.5388C142.814 35.3549 143.173 35.0528 143.45 34.6325C143.754 34.2121 143.906 33.6736 143.906 33.0168C143.906 31.8609 143.505 30.902 142.703 30.1402C141.928 29.3783 140.932 28.5508 139.715 27.6576C138.83 26.9746 137.986 26.3046 137.184 25.6479C136.409 24.9648 135.773 24.2293 135.275 23.4411C134.777 22.6268 134.528 21.7073 134.528 20.6827C134.528 19.5005 134.86 18.5023 135.524 17.6879C136.188 16.8735 137.059 16.2692 138.138 15.8752C139.245 15.4548 140.42 15.2447 141.665 15.2447Z" fill="black"/>
<path d="M161.249 15.3629V32.5045C161.249 33.6079 161.443 34.3566 161.83 34.7507C162.245 35.1447 162.937 35.3418 163.905 35.3418V36.1693C163.407 36.143 162.632 36.1168 161.581 36.0905C160.53 36.0379 159.465 36.0117 158.386 36.0117C157.307 36.0117 156.214 36.0379 155.107 36.0905C154.001 36.1168 153.171 36.143 152.617 36.1693V35.3418C153.586 35.3418 154.264 35.1447 154.651 34.7507C155.066 34.3566 155.273 33.6079 155.273 32.5045V20.0916C155.273 18.9094 155.08 18.0425 154.692 17.4908C154.333 16.9129 153.641 16.6239 152.617 16.6239V15.7964C153.503 15.8752 154.36 15.9146 155.19 15.9146C156.352 15.9146 157.431 15.8752 158.427 15.7964C159.451 15.6913 160.391 15.5468 161.249 15.3629Z" fill="black"/>
<path d="M171.434 36.4451C170.189 36.4451 169.152 36.2218 168.322 35.7752C167.492 35.3286 166.883 34.7375 166.496 34.002C166.108 33.2401 165.915 32.4126 165.915 31.5194C165.915 30.3897 166.178 29.4703 166.703 28.761C167.257 28.0517 167.962 27.4737 168.82 27.0271C169.677 26.5805 170.576 26.2127 171.517 25.9237C172.485 25.6347 173.398 25.3589 174.256 25.0962C175.141 24.8072 175.847 24.4788 176.372 24.111C176.926 23.717 177.202 23.2178 177.202 22.6136V19.5399C177.202 18.8569 177.078 18.2527 176.829 17.7273C176.608 17.1756 176.248 16.7552 175.75 16.4663C175.28 16.1773 174.657 16.0328 173.882 16.0328C173.329 16.0328 172.776 16.1116 172.223 16.2692C171.669 16.4006 171.213 16.637 170.853 16.9785C171.628 17.2413 172.223 17.6485 172.637 18.2001C173.08 18.7256 173.301 19.3298 173.301 20.0128C173.301 20.906 172.97 21.6153 172.306 22.1407C171.669 22.6662 170.908 22.9289 170.023 22.9289C169.027 22.9289 168.266 22.6399 167.741 22.0619C167.243 21.4577 166.994 20.7353 166.994 19.8946C166.994 19.1327 167.187 18.5023 167.575 18.0031C167.99 17.504 168.557 17.0311 169.276 16.5845C170.051 16.1642 170.978 15.8358 172.057 15.5993C173.163 15.3629 174.353 15.2447 175.625 15.2447C176.898 15.2447 178.046 15.376 179.07 15.6387C180.093 15.8752 180.951 16.3218 181.643 16.9785C182.279 17.5828 182.694 18.3315 182.888 19.2247C183.081 20.0916 183.178 21.195 183.178 22.5348V33.2533C183.178 33.91 183.247 34.3698 183.386 34.6325C183.524 34.8689 183.759 34.9871 184.091 34.9871C184.34 34.9871 184.575 34.9214 184.797 34.7901C185.046 34.6587 185.308 34.5011 185.585 34.3172L186 34.9871C185.419 35.46 184.741 35.8278 183.967 36.0905C183.22 36.3269 182.376 36.4451 181.435 36.4451C180.412 36.4451 179.595 36.3138 178.987 36.0511C178.378 35.7621 177.935 35.3812 177.659 34.9083C177.41 34.4354 177.285 33.8837 177.285 33.2533C176.621 34.2515 175.819 35.0397 174.878 35.6176C173.938 36.1693 172.79 36.4451 171.434 36.4451ZM174.38 33.9232C174.934 33.9232 175.432 33.8049 175.874 33.5685C176.345 33.3058 176.787 32.8855 177.202 32.3075V24.2293C176.953 24.6233 176.608 24.978 176.165 25.2932C175.722 25.6085 175.252 25.9369 174.754 26.2784C174.256 26.5936 173.772 26.9483 173.301 27.3423C172.859 27.7364 172.499 28.2224 172.223 28.8004C171.946 29.3783 171.808 30.0745 171.808 30.8889C171.808 31.9134 172.043 32.6753 172.513 33.1744C172.983 33.6736 173.606 33.9232 174.38 33.9232Z" fill="black"/>
<path d="M161.919 5.25885C161.342 5.6246 160.726 5.85654 160.072 5.95467C159.418 6.0528 158.925 5.99482 158.594 5.78072C158.586 5.78072 158.558 5.76288 158.511 5.72719C158.465 5.69151 158.416 5.65806 158.365 5.62683C158.314 5.59561 158.263 5.58 158.212 5.58V9.32676C158.586 8.8718 159.01 8.49266 159.486 8.18935C159.749 8.01985 160.053 7.89719 160.397 7.82136C160.741 7.74554 161.066 7.71208 161.372 7.721C161.677 7.72993 161.964 7.75 162.232 7.78122C162.499 7.81244 162.709 7.85036 162.862 7.89496L163.104 7.94849C163.079 8.00201 163.039 8.07338 162.983 8.16259C162.928 8.2518 162.816 8.41906 162.646 8.66439C162.476 8.90971 162.302 9.14388 162.123 9.3669C161.945 9.58992 161.722 9.82856 161.454 10.0828C161.187 10.337 160.921 10.5489 160.658 10.7184C159.554 11.4142 158.738 11.78 158.212 11.8157V12.8594C158.212 13.0914 158.133 13.2921 157.976 13.4616C157.819 13.6311 157.626 13.7158 157.396 13.7158C157.167 13.7158 156.974 13.6311 156.817 13.4616C156.66 13.2921 156.581 13.0914 156.581 12.8594V11.9763C156.182 12.0298 155.717 11.9896 155.186 11.8558C154.655 11.722 154.164 11.5168 153.714 11.2403C153.451 11.0797 153.2 10.8589 152.963 10.5779C152.725 10.2969 152.531 10.0159 152.383 9.73489C152.234 9.45388 152.105 9.17957 151.994 8.91194C151.884 8.64431 151.805 8.43244 151.759 8.27633C151.712 8.12021 151.688 8.03769 151.688 8.02877C151.756 8.00201 151.846 7.97302 151.956 7.9418C152.066 7.91057 152.281 7.86597 152.599 7.80798C152.918 7.75 153.224 7.71877 153.517 7.71431C153.81 7.70985 154.13 7.75 154.479 7.83475C154.827 7.91949 155.124 8.06 155.371 8.25626C155.617 8.45251 156.02 8.99223 156.581 9.87539V6.4364C156.53 6.4364 156.479 6.45201 156.428 6.48324C156.377 6.51446 156.328 6.54791 156.282 6.58359C156.235 6.61928 156.207 6.64158 156.199 6.6505C155.868 6.85568 155.375 6.90921 154.721 6.81108C154.067 6.71295 153.451 6.481 152.873 6.11525C152.61 5.94575 152.359 5.71381 152.122 5.41942C151.884 5.12503 151.695 4.84403 151.555 4.5764C151.415 4.30878 151.287 4.02108 151.172 3.71331C151.058 3.40554 150.983 3.19367 150.949 3.0777C150.916 2.96173 150.89 2.87252 150.873 2.81007C150.933 2.79223 151.015 2.76993 151.121 2.74316C151.228 2.7164 151.434 2.68295 151.739 2.6428C152.045 2.60266 152.338 2.58036 152.619 2.5759C152.899 2.57144 153.215 2.60712 153.568 2.68295C153.92 2.75878 154.228 2.88144 154.491 3.05093C155.018 3.38101 155.475 3.78021 155.861 4.24856C156.248 4.7169 156.488 5.16072 156.581 5.58V3.42561C156.581 3.40777 156.585 3.37209 156.594 3.31856C156.212 3.21151 155.868 3.05093 155.562 2.83683C155.264 2.62273 154.997 2.29489 154.759 1.85331C154.521 1.41173 154.36 1.02144 154.275 0.682446L154.135 0.173957C154.177 0.165036 154.237 0.149424 154.313 0.127122C154.39 0.10482 154.536 0.0780575 154.753 0.0468345C154.969 0.0156115 155.177 0 155.377 0C155.577 0 155.804 0.0289928 156.059 0.0869784C156.313 0.144964 156.534 0.240863 156.721 0.374676C157.137 0.660144 157.49 1.03259 157.779 1.49201C158.067 1.95144 158.212 2.3105 158.212 2.56921V4.7236C158.305 4.30432 158.545 3.8605 158.932 3.39216C159.318 2.92381 159.775 2.5246 160.301 2.19453C160.565 2.02504 160.868 1.90237 161.212 1.82655C161.556 1.75072 161.881 1.71727 162.187 1.72619C162.493 1.73511 162.779 1.75518 163.047 1.7864C163.315 1.81763 163.525 1.85108 163.678 1.88676L163.92 1.95367C163.903 2.01611 163.879 2.10309 163.85 2.2146C163.82 2.32611 163.746 2.53798 163.627 2.85021C163.508 3.16244 163.378 3.45237 163.238 3.72C163.098 3.98762 162.909 4.26863 162.671 4.56302C162.433 4.85741 162.183 5.08935 161.919 5.25885Z" fill="#D78B1A"/>
</svg>
